<svg xmlns="http://www.w3.org/2000/svg" xmlns:xlink="http://www.w3.org/1999/xlink" width="300" zoomAndPan="magnify" viewBox="0 0 224.87999 225" height="300" preserveAspectRatio="xMidYMid meet" version="1.0"><defs><g/><clipPath id="4705f6f232"><path d="M 0 0.0585938 L 224.761719 0.0585938 L 224.761719 224.9375 L 0 224.9375 Z M 0 0.0585938 " clip-rule="nonzero"/></clipPath><clipPath id="8eae053667"><path d="M 1.035156 0.707031 L 209.84375 0.707031 L 209.84375 116.292969 L 1.035156 116.292969 Z M 1.035156 0.707031 " clip-rule="nonzero"/></clipPath><clipPath id="c43bc0d351"><path d="M 0.0351562 0.707031 L 208.84375 0.707031 L 208.84375 116.292969 L 0.0351562 116.292969 Z M 0.0351562 0.707031 " clip-rule="nonzero"/></clipPath><clipPath id="1b28dc51c0"><rect x="0" width="209" y="0" height="117"/></clipPath><clipPath id="6e3673b397"><path d="M 12.042969 21.519531 L 105.570312 21.519531 L 105.570312 106.125 L 12.042969 106.125 Z M 12.042969 21.519531 " clip-rule="nonzero"/></clipPath><clipPath id="e585f4f858"><path d="M 104.203125 39.398438 C 101.257812 29.402344 91.753906 21.519531 80.515625 21.519531 C 71.082031 21.519531 62.886719 26.84375 58.742188 34.660156 C 54.597656 26.84375 46.402344 21.519531 36.96875 21.519531 C 25.214844 21.519531 14.933594 29.402344 12.914062 40.839844 C 7.792969 69.84375 40.238281 92.550781 58.816406 106.125 C 75.988281 93.574219 112.617188 67.980469 104.203125 39.398438 Z M 104.203125 39.398438 " clip-rule="nonzero"/></clipPath><clipPath id="aafc04fa71"><path d="M 0.191406 0.519531 L 93.570312 0.519531 L 93.570312 85.125 L 0.191406 85.125 Z M 0.191406 0.519531 " clip-rule="nonzero"/></clipPath><clipPath id="ed45e6d4a7"><path d="M 92.203125 18.398438 C 89.257812 8.402344 79.753906 0.519531 68.515625 0.519531 C 59.082031 0.519531 50.886719 5.84375 46.742188 13.660156 C 42.597656 5.84375 34.402344 0.519531 24.96875 0.519531 C 13.214844 0.519531 2.933594 8.402344 0.914062 19.839844 C -4.207031 48.84375 28.238281 71.550781 46.816406 85.125 C 63.988281 72.574219 100.617188 46.980469 92.203125 18.398438 Z M 92.203125 18.398438 " clip-rule="nonzero"/></clipPath><clipPath id="e701fe83a6"><rect x="0" width="94" y="0" height="86"/></clipPath><clipPath id="f6c32f50c8"><path d="M 43.5 40.789062 L 71.886719 40.789062 L 71.886719 90.464844 L 43.5 90.464844 Z M 43.5 40.789062 " clip-rule="nonzero"/></clipPath><clipPath id="e979997466"><rect x="0" width="85" y="0" height="46"/></clipPath><clipPath id="d41e7caf0a"><path d="M 105.441406 22 L 142.695312 22 L 142.695312 31 L 105.441406 31 Z M 105.441406 22 " clip-rule="nonzero"/></clipPath><clipPath id="35267b38d2"><path d="M 120 7.878906 L 128 7.878906 L 128 45.136719 L 120 45.136719 Z M 120 7.878906 " clip-rule="nonzero"/></clipPath><clipPath id="5348249887"><rect x="0" width="211" y="0" height="117"/></clipPath></defs><g clip-path="url(#4705f6f232)"><path fill="#ffffff" d="M 0 0.0585938 L 224.878906 0.0585938 L 224.878906 224.941406 L 0 224.941406 Z M 0 0.0585938 " fill-opacity="1" fill-rule="nonzero"/><path fill="#000000" d="M 0 0.0585938 L 224.878906 0.0585938 L 224.878906 224.941406 L 0 224.941406 Z M 0 0.0585938 " fill-opacity="1" fill-rule="nonzero"/></g><g transform="matrix(1, 0, 0, 1, 7, 54)"><g clip-path="url(#5348249887)"><g clip-path="url(#8eae053667)"><g transform="matrix(1, 0, 0, 1, 1, 0)"><g clip-path="url(#1b28dc51c0)"><g clip-path="url(#c43bc0d351)"><path fill="#639922" d="M 0.0351562 0.707031 L 208.628906 0.707031 L 208.628906 116.292969 L 0.0351562 116.292969 Z M 0.0351562 0.707031 " fill-opacity="1" fill-rule="nonzero"/></g></g></g></g><g clip-path="url(#6e3673b397)"><g clip-path="url(#e585f4f858)"><g transform="matrix(1, 0, 0, 1, 12, 21)"><g clip-path="url(#e701fe83a6)"><g clip-path="url(#aafc04fa71)"><g clip-path="url(#ed45e6d4a7)"><path fill="#ffffff" d="M 0.371094 0.519531 L 93.570312 0.519531 L 93.570312 85.125 L 0.371094 85.125 Z M 0.371094 0.519531 " fill-opacity="1" fill-rule="nonzero"/></g></g></g></g></g></g><g clip-path="url(#f6c32f50c8)"><path fill="#639922" d="M 67.527344 40.78125 L 43.542969 67.59375 L 57.28125 66.140625 L 49.738281 91.066406 L 71.691406 59.511719 L 61.527344 60.636719 Z M 67.527344 40.78125 " fill-opacity="1" fill-rule="evenodd"/></g><g transform="matrix(1, 0, 0, 1, 106, 57)"><g clip-path="url(#e979997466)"><g fill="#ffffff" fill-opacity="1"><g transform="translate(1.959751, 34.376064)"><g><path d="M 20.015625 -5.921875 L 7.234375 -5.921875 L 4.71875 0 L -0.1875 0 L 11.328125 -25.578125 L 16 -25.578125 L 27.546875 0 L 22.578125 0 Z M 18.453125 -9.640625 L 13.625 -20.828125 L 8.84375 -9.640625 Z M 18.453125 -9.640625 "/></g></g></g><g fill="#ffffff" fill-opacity="1"><g transform="translate(29.319864, 34.376064)"><g><path d="M 22.609375 -3.984375 L 22.609375 0 L 3.4375 0 L 3.4375 -25.578125 L 22.09375 -25.578125 L 22.09375 -21.59375 L 8.1875 -21.59375 L 8.1875 -14.9375 L 20.53125 -14.9375 L 20.53125 -11.03125 L 8.1875 -11.03125 L 8.1875 -3.984375 Z M 22.609375 -3.984375 "/></g></g></g><g fill="#ffffff" fill-opacity="1"><g transform="translate(53.794196, 34.376064)"><g><path d="M 3.4375 -25.578125 L 14.609375 -25.578125 C 17.335938 -25.578125 19.757812 -25.046875 21.875 -23.984375 C 24 -22.921875 25.644531 -21.421875 26.8125 -19.484375 C 27.976562 -17.546875 28.5625 -15.3125 28.5625 -12.78125 C 28.5625 -10.25 27.976562 -8.015625 26.8125 -6.078125 C 25.644531 -4.140625 24 -2.640625 21.875 -1.578125 C 19.757812 -0.523438 17.335938 0 14.609375 0 L 3.4375 0 Z M 14.390625 -4.015625 C 16.265625 -4.015625 17.914062 -4.375 19.34375 -5.09375 C 20.769531 -5.8125 21.863281 -6.832031 22.625 -8.15625 C 23.394531 -9.488281 23.78125 -11.03125 23.78125 -12.78125 C 23.78125 -14.539062 23.394531 -16.082031 22.625 -17.40625 C 21.863281 -18.726562 20.769531 -19.75 19.34375 -20.46875 C 17.914062 -21.1875 16.265625 -21.546875 14.390625 -21.546875 L 8.1875 -21.546875 L 8.1875 -4.015625 Z M 14.390625 -4.015625 "/></g></g></g></g></g><g clip-path="url(#d41e7caf0a)"><path fill="#f1f1f1" d="M 140.859375 30.25 L 107.304688 30.25 C 106.1875 30.25 105.441406 29.503906 105.441406 28.386719 L 105.441406 24.65625 C 105.441406 23.539062 106.1875 22.792969 107.304688 22.792969 L 140.859375 22.792969 C 141.980469 22.792969 142.722656 23.539062 142.722656 24.65625 L 142.722656 28.386719 C 142.722656 29.503906 141.980469 30.25 140.859375 30.25 Z M 140.859375 30.25 " fill-opacity="1" fill-rule="nonzero"/></g><g clip-path="url(#35267b38d2)"><path fill="#f1f1f1" d="M 120.355469 43.300781 L 120.355469 9.742188 C 120.355469 8.625 121.097656 7.878906 122.21875 7.878906 L 125.945312 7.878906 C 127.066406 7.878906 127.8125 8.625 127.8125 9.742188 L 127.8125 43.300781 C 127.8125 44.417969 127.066406 45.164062 125.945312 45.164062 L 122.21875 45.164062 C 121.097656 45.164062 120.355469 44.417969 120.355469 43.300781 Z M 120.355469 43.300781 " fill-opacity="1" fill-rule="nonzero"/></g></g></g></svg>