<svg xmlns="http://www.w3.org/2000/svg" xmlns:xlink="http://www.w3.org/1999/xlink" width="300" zoomAndPan="magnify" viewBox="0 0 224.87999 225" height="300" preserveAspectRatio="xMidYMid meet" version="1.0"><defs><clipPath id="aee8981cc6"><path d="M 0 0.0585938 L 224.761719 0.0585938 L 224.761719 224.9375 L 0 224.9375 Z M 0 0.0585938 " clip-rule="nonzero"/></clipPath><clipPath id="76601dfe84"><path d="M 18.589844 15.007812 L 206 15.007812 L 206 202.15625 L 18.589844 202.15625 Z M 18.589844 15.007812 " clip-rule="nonzero"/></clipPath><clipPath id="0de118cb36"><path d="M 18.589844 14.769531 L 206.261719 14.769531 L 206.261719 202.441406 L 18.589844 202.441406 Z M 18.589844 14.769531 " clip-rule="nonzero"/></clipPath></defs><g clip-path="url(#aee8981cc6)"><path fill="#ffffff" d="M 0 0.0585938 L 224.878906 0.0585938 L 224.878906 224.941406 L 0 224.941406 Z M 0 0.0585938 " fill-opacity="1" fill-rule="nonzero"/><path fill="#000000" d="M 0 0.0585938 L 224.878906 0.0585938 L 224.878906 224.941406 L 0 224.941406 Z M 0 0.0585938 " fill-opacity="1" fill-rule="nonzero"/></g><g clip-path="url(#76601dfe84)"><path fill="#ffffff" d="M 192.710938 202.082031 C 199.9375 202.082031 205.902344 196.117188 205.902344 188.890625 L 205.902344 28.332031 C 205.902344 21.101562 199.9375 15.140625 192.710938 15.140625 L 32.152344 15.140625 C 24.925781 15.140625 18.964844 21.101562 18.964844 28.332031 L 18.964844 188.890625 C 18.964844 196.117188 24.925781 202.082031 32.152344 202.082031 Z M 192.710938 202.082031 " fill-opacity="1" fill-rule="evenodd"/></g><g clip-path="url(#0de118cb36)"><path stroke-linecap="butt" transform="matrix(0.373878, 0, 0, 0.373878, 1346.638126, 1932.375562)" fill="none" stroke-linejoin="miter" d="M -3086.372584 -4627.961426 C -3067.043925 -4627.961426 -3051.089946 -4643.915405 -3051.089946 -4663.244064 L -3051.089946 -5092.685061 C -3051.089946 -5112.013719 -3067.043925 -5127.95725 -3086.372584 -5127.95725 L -3515.81358 -5127.95725 C -3535.142239 -5127.95725 -3551.08577 -5112.013719 -3551.08577 -5092.685061 L -3551.08577 -4663.244064 C -3551.08577 -4643.915405 -3535.142239 -4627.961426 -3515.81358 -4627.961426 Z M -3086.372584 -4627.961426 " stroke="#000000" stroke-width="2" stroke-opacity="1" stroke-miterlimit="4"/></g><path fill="#333366" d="M 32.15625 196.210938 C 28.128906 196.210938 24.832031 192.917969 24.832031 188.886719 L 24.832031 28.339844 C 24.832031 24.304688 28.128906 21.015625 32.15625 21.015625 L 192.707031 21.015625 C 196.738281 21.015625 200.03125 24.304688 200.03125 28.339844 L 200.03125 188.886719 C 200.03125 192.917969 196.738281 196.210938 192.707031 196.210938 Z M 32.15625 196.210938 " fill-opacity="1" fill-rule="evenodd"/><path fill="#ffffff" d="M 36.070312 171.929688 L 188.796875 171.929688 L 112.433594 39.582031 Z M 36.070312 171.929688 " fill-opacity="1" fill-rule="evenodd"/><path fill="#000000" d="M 89.027344 146.894531 L 107.636719 108.808594 L 106.09375 103.214844 L 95.488281 114.160156 C 92.160156 117.148438 87.246094 112.082031 90.472656 108.855469 L 108.890625 87.789062 C 110.914062 86.34375 111.777344 85.859375 113.855469 84.800781 C 116.121094 83.691406 116.648438 83.691406 118.820312 85.667969 L 135.257812 102.398438 C 135.835938 103.027344 136.078125 102.882812 136.320312 104.328125 L 136.320312 112.519531 C 136.320312 116.183594 129.519531 116.136719 129.425781 112.472656 L 129.425781 106.058594 L 123.304688 101.625 L 121.082031 107.75 C 126.195312 121.484375 130.390625 133.875 135.5 147.5625 C 137.8125 154.027344 129.90625 157.160156 126.726562 150.894531 L 113.953125 116.8125 C 108.214844 128.574219 103.058594 139.664062 97.320312 151.375 C 93.992188 157.355469 85.84375 152.726562 89.027344 146.894531 " fill-opacity="1" fill-rule="evenodd"/><path fill="#000000" d="M 109.46875 70.386719 C 112.890625 70.386719 115.636719 73.1875 115.636719 76.605469 C 115.636719 80.03125 112.890625 82.824219 109.46875 82.824219 C 106.042969 82.824219 103.25 80.03125 103.25 76.605469 C 103.25 73.1875 106.042969 70.386719 109.46875 70.386719 " fill-opacity="1" fill-rule="evenodd"/><path fill="#000000" d="M 64.777344 136.769531 L 74.902344 136.769531 L 63.042969 164.824219 L 48.867188 164.824219 Z M 64.777344 136.769531 " fill-opacity="1" fill-rule="evenodd"/><path fill="#000000" d="M 160.085938 136.769531 L 149.960938 136.769531 L 161.820312 164.824219 L 175.996094 164.824219 Z M 160.085938 136.769531 " fill-opacity="1" fill-rule="evenodd"/><path fill="#000000" d="M 86.425781 136.433594 L 91.683594 136.433594 L 87.101562 146.363281 C 84.691406 152.917969 88.835938 155.859375 92.980469 156.726562 L 92.113281 164.828125 L 77.359375 164.828125 Z M 86.425781 136.433594 " fill-opacity="1" fill-rule="evenodd"/><path fill="#000000" d="M 138.632812 136.433594 L 133.910156 136.433594 L 137.523438 146.894531 C 139.933594 153.449219 134.828125 155.617188 131.933594 156.484375 L 132.945312 164.828125 L 147.695312 164.828125 Z M 138.632812 136.433594 " fill-opacity="1" fill-rule="evenodd"/><path fill="#000000" d="M 107.78125 136.335938 L 117.566406 136.335938 L 119.0625 164.828125 L 106.332031 164.828125 Z M 107.78125 136.335938 " fill-opacity="1" fill-rule="evenodd"/></svg>