<svg xmlns="http://www.w3.org/2000/svg" xmlns:xlink="http://www.w3.org/1999/xlink" width="300" zoomAndPan="magnify" viewBox="0 0 224.87999 225" height="300" preserveAspectRatio="xMidYMid meet" version="1.0"><defs><clipPath id="b60ab86e87"><path d="M 0 0.0585938 L 224.761719 0.0585938 L 224.761719 224.9375 L 0 224.9375 Z M 0 0.0585938 " clip-rule="nonzero"/></clipPath><clipPath id="a224171d12"><path d="M 14.1875 14.246094 L 210.582031 14.246094 L 210.582031 210.640625 L 14.1875 210.640625 Z M 14.1875 14.246094 " clip-rule="nonzero"/></clipPath></defs><g clip-path="url(#b60ab86e87)"><path fill="#ffffff" d="M 0 0.0585938 L 224.878906 0.0585938 L 224.878906 224.941406 L 0 224.941406 Z M 0 0.0585938 " fill-opacity="1" fill-rule="nonzero"/><path fill="#000000" d="M 0 0.0585938 L 224.878906 0.0585938 L 224.878906 224.941406 L 0 224.941406 Z M 0 0.0585938 " fill-opacity="1" fill-rule="nonzero"/></g><path fill="#ffffff" d="M 66.683594 63.597656 L 93.65625 63.597656 L 93.65625 100.035156 L 131.109375 100.035156 L 131.109375 63.597656 L 158.183594 63.597656 L 158.183594 161.398438 L 131.109375 161.398438 L 131.109375 121.054688 L 93.65625 121.054688 L 93.65625 161.398438 L 66.683594 161.398438 Z M 66.683594 63.597656 " fill-opacity="1" fill-rule="nonzero"/><g clip-path="url(#a224171d12)"><path fill="#ffffff" d="M 112.4375 210.757812 C 86.1875 210.757812 61.515625 200.539062 42.957031 181.976562 C 24.394531 163.417969 14.175781 138.746094 14.175781 112.496094 C 14.175781 86.246094 24.394531 61.578125 42.957031 43.015625 C 61.515625 24.453125 86.1875 14.234375 112.4375 14.234375 C 138.683594 14.234375 163.355469 24.453125 181.917969 43.015625 C 200.476562 61.578125 210.695312 86.246094 210.695312 112.496094 C 210.695312 138.746094 200.476562 163.417969 181.917969 181.976562 C 163.355469 200.539062 138.683594 210.757812 112.4375 210.757812 Z M 112.4375 22.816406 C 88.480469 22.816406 65.960938 32.144531 49.023438 49.085938 C 32.089844 66.023438 22.753906 88.546875 22.753906 112.496094 C 22.753906 136.445312 32.082031 158.972656 49.023438 175.90625 C 65.960938 192.84375 88.484375 202.175781 112.4375 202.175781 C 136.386719 202.175781 158.910156 192.851562 175.847656 175.90625 C 192.785156 158.972656 202.117188 136.445312 202.117188 112.496094 C 202.117188 88.546875 192.789062 66.023438 175.847656 49.085938 C 158.910156 32.148438 136.386719 22.816406 112.4375 22.816406 Z M 112.4375 22.816406 " fill-opacity="1" fill-rule="nonzero"/></g></svg>