<svg xmlns="http://www.w3.org/2000/svg" xmlns:xlink="http://www.w3.org/1999/xlink" width="300" zoomAndPan="magnify" viewBox="0 0 224.87999 225" height="300" preserveAspectRatio="xMidYMid meet" version="1.0"><defs><clipPath id="15d117a1c7"><path d="M 0 0.0585938 L 224.761719 0.0585938 L 224.761719 224.9375 L 0 224.9375 Z M 0 0.0585938 " clip-rule="nonzero"/></clipPath><clipPath id="6c87406e20"><path d="M 7.066406 10.882812 L 215.421875 10.882812 L 215.421875 208.230469 L 7.066406 208.230469 Z M 7.066406 10.882812 " clip-rule="nonzero"/></clipPath></defs><g clip-path="url(#15d117a1c7)"><path fill="#ffffff" d="M 0 0.0585938 L 224.878906 0.0585938 L 224.878906 224.941406 L 0 224.941406 Z M 0 0.0585938 " fill-opacity="1" fill-rule="nonzero"/><path fill="#000000" d="M 0 0.0585938 L 224.878906 0.0585938 L 224.878906 224.941406 L 0 224.941406 Z M 0 0.0585938 " fill-opacity="1" fill-rule="nonzero"/></g><g clip-path="url(#6c87406e20)"><path fill="#ffffff" d="M 215.167969 109.585938 C 215.167969 111.203125 215.125 112.816406 215.042969 114.429688 C 214.960938 116.042969 214.832031 117.652344 214.667969 119.261719 C 214.5 120.867188 214.292969 122.472656 214.042969 124.070312 C 213.792969 125.667969 213.5 127.257812 213.171875 128.84375 C 212.835938 130.429688 212.464844 132.003906 212.050781 133.570312 C 211.640625 135.136719 211.1875 136.695312 210.691406 138.242188 C 210.199219 139.785156 209.664062 141.316406 209.09375 142.839844 C 208.515625 144.359375 207.90625 145.867188 207.253906 147.359375 C 206.605469 148.851562 205.917969 150.332031 205.191406 151.789062 C 204.460938 153.25 203.699219 154.691406 202.898438 156.117188 C 202.09375 157.539062 201.253906 158.949219 200.378906 160.332031 C 199.507812 161.71875 198.59375 163.082031 197.652344 164.425781 C 196.707031 165.769531 195.730469 167.089844 194.714844 168.386719 C 193.699219 169.683594 192.65625 170.957031 191.578125 172.203125 C 190.496094 173.453125 189.386719 174.679688 188.242188 175.871094 C 187.101562 177.070312 185.929688 178.238281 184.726562 179.382812 C 183.523438 180.527344 182.292969 181.640625 181.03125 182.722656 C 179.773438 183.804688 178.484375 184.863281 177.171875 185.886719 C 175.855469 186.914062 174.515625 187.90625 173.148438 188.867188 C 171.78125 189.832031 170.390625 190.757812 168.980469 191.65625 C 167.5625 192.554688 166.128906 193.417969 164.667969 194.25 C 163.207031 195.078125 161.726562 195.878906 160.226562 196.636719 C 158.726562 197.402344 157.210938 198.125 155.671875 198.816406 C 154.132812 199.507812 152.582031 200.164062 151.007812 200.78125 C 149.4375 201.398438 147.851562 201.976562 146.25 202.523438 C 144.648438 203.066406 143.035156 203.574219 141.40625 204.042969 C 139.777344 204.515625 138.140625 204.945312 136.488281 205.335938 C 134.839844 205.726562 133.183594 206.082031 131.511719 206.398438 C 129.84375 206.710938 128.167969 206.988281 126.488281 207.226562 C 124.800781 207.460938 123.117188 207.660156 121.421875 207.816406 C 119.730469 207.976562 118.035156 208.09375 116.335938 208.175781 C 114.636719 208.253906 112.9375 208.292969 111.234375 208.292969 C 109.535156 208.292969 107.835938 208.253906 106.136719 208.175781 C 104.4375 208.09375 102.742188 207.976562 101.046875 207.816406 C 99.355469 207.660156 97.667969 207.460938 95.988281 207.226562 C 94.304688 206.988281 92.625 206.710938 90.960938 206.398438 C 89.292969 206.082031 87.632812 205.726562 85.980469 205.335938 C 84.332031 204.945312 82.691406 204.511719 81.066406 204.042969 C 79.441406 203.574219 77.824219 203.066406 76.222656 202.523438 C 74.621094 201.976562 73.035156 201.398438 71.460938 200.78125 C 69.894531 200.164062 68.335938 199.507812 66.800781 198.816406 C 65.261719 198.125 63.742188 197.402344 62.242188 196.636719 C 60.742188 195.878906 59.265625 195.078125 57.804688 194.25 C 56.347656 193.417969 54.910156 192.554688 53.496094 191.65625 C 52.078125 190.757812 50.691406 189.832031 49.324219 188.867188 C 47.957031 187.90625 46.621094 186.914062 45.304688 185.886719 C 43.988281 184.863281 42.703125 183.804688 41.441406 182.722656 C 40.179688 181.640625 38.949219 180.527344 37.746094 179.382812 C 36.542969 178.238281 35.371094 177.070312 34.226562 175.871094 C 33.085938 174.679688 31.972656 173.453125 30.894531 172.203125 C 29.816406 170.957031 28.769531 169.683594 27.757812 168.386719 C 26.746094 167.089844 25.765625 165.769531 24.820312 164.425781 C 23.875 163.082031 22.964844 161.71875 22.089844 160.332031 C 21.214844 158.949219 20.378906 157.539062 19.578125 156.117188 C 18.777344 154.691406 18.011719 153.25 17.28125 151.789062 C 16.554688 150.332031 15.867188 148.851562 15.214844 147.359375 C 14.566406 145.867188 13.953125 144.359375 13.382812 142.839844 C 12.804688 141.316406 12.273438 139.785156 11.78125 138.242188 C 11.285156 136.695312 10.832031 135.136719 10.417969 133.570312 C 10.003906 132.003906 9.632812 130.429688 9.300781 128.84375 C 8.96875 127.257812 8.679688 125.667969 8.429688 124.070312 C 8.179688 122.472656 7.972656 120.867188 7.804688 119.261719 C 7.636719 117.652344 7.515625 116.042969 7.429688 114.429688 C 7.347656 112.816406 7.304688 111.203125 7.304688 109.585938 C 7.304688 107.972656 7.347656 106.355469 7.429688 104.742188 C 7.515625 103.128906 7.636719 101.519531 7.804688 99.910156 C 7.972656 98.304688 8.179688 96.699219 8.429688 95.101562 C 8.679688 93.503906 8.96875 91.914062 9.300781 90.332031 C 9.632812 88.746094 10.003906 87.167969 10.417969 85.601562 C 10.832031 84.035156 11.285156 82.480469 11.78125 80.933594 C 12.273438 79.386719 12.804688 77.851562 13.382812 76.332031 C 13.953125 74.808594 14.566406 73.304688 15.214844 71.8125 C 15.867188 70.320312 16.554688 68.84375 17.28125 67.382812 C 18.011719 65.925781 18.777344 64.480469 19.578125 63.058594 C 20.378906 61.632812 21.214844 60.226562 22.089844 58.839844 C 22.964844 57.457031 23.875 56.089844 24.820312 54.746094 C 25.765625 53.40625 26.746094 52.085938 27.757812 50.789062 C 28.769531 49.492188 29.816406 48.21875 30.894531 46.964844 C 31.972656 45.71875 33.085938 44.496094 34.226562 43.296875 C 35.371094 42.101562 36.542969 40.929688 37.746094 39.792969 C 38.949219 38.648438 40.179688 37.535156 41.441406 36.449219 C 42.703125 35.363281 43.988281 34.308594 45.304688 33.285156 C 46.621094 32.261719 47.957031 31.265625 49.324219 30.304688 C 50.691406 29.339844 52.078125 28.410156 53.496094 27.515625 C 54.910156 26.617188 56.347656 25.753906 57.804688 24.925781 C 59.265625 24.089844 60.742188 23.296875 62.242188 22.535156 C 63.742188 21.773438 65.261719 21.050781 66.800781 20.359375 C 68.335938 19.667969 69.894531 19.011719 71.460938 18.394531 C 73.035156 17.777344 74.621094 17.191406 76.222656 16.648438 C 77.824219 16.105469 79.441406 15.601562 81.066406 15.128906 C 82.691406 14.660156 84.332031 14.230469 85.980469 13.839844 C 87.632812 13.445312 89.292969 13.089844 90.960938 12.777344 C 92.625 12.460938 94.304688 12.1875 95.988281 11.949219 C 97.667969 11.710938 99.355469 11.515625 101.046875 11.351562 C 102.742188 11.195312 104.4375 11.078125 106.136719 11 C 107.835938 10.917969 109.535156 10.882812 111.234375 10.882812 C 112.9375 10.882812 114.636719 10.917969 116.335938 11 C 118.035156 11.078125 119.730469 11.195312 121.421875 11.351562 C 123.117188 11.515625 124.800781 11.710938 126.488281 11.949219 C 128.167969 12.1875 129.84375 12.460938 131.511719 12.777344 C 133.183594 13.089844 134.839844 13.445312 136.488281 13.839844 C 138.140625 14.230469 139.777344 14.660156 141.40625 15.128906 C 143.035156 15.601562 144.648438 16.105469 146.25 16.648438 C 147.851562 17.191406 149.4375 17.777344 151.007812 18.394531 C 152.582031 19.011719 154.132812 19.667969 155.671875 20.359375 C 157.210938 21.050781 158.726562 21.773438 160.226562 22.535156 C 161.726562 23.296875 163.207031 24.089844 164.667969 24.925781 C 166.128906 25.753906 167.5625 26.617188 168.980469 27.515625 C 170.390625 28.410156 171.78125 29.339844 173.148438 30.304688 C 174.515625 31.265625 175.855469 32.261719 177.171875 33.285156 C 178.484375 34.308594 179.773438 35.363281 181.03125 36.449219 C 182.292969 37.535156 183.523438 38.648438 184.726562 39.792969 C 185.929688 40.929688 187.101562 42.101562 188.242188 43.296875 C 189.386719 44.496094 190.496094 45.71875 191.578125 46.964844 C 192.65625 48.21875 193.699219 49.492188 194.714844 50.789062 C 195.730469 52.085938 196.707031 53.40625 197.652344 54.746094 C 198.59375 56.089844 199.507812 57.457031 200.378906 58.839844 C 201.253906 60.226562 202.09375 61.632812 202.898438 63.058594 C 203.699219 64.480469 204.460938 65.925781 205.191406 67.382812 C 205.917969 68.84375 206.605469 70.320312 207.253906 71.8125 C 207.90625 73.304688 208.515625 74.808594 209.09375 76.332031 C 209.664062 77.851562 210.199219 79.386719 210.691406 80.933594 C 211.1875 82.480469 211.640625 84.035156 212.050781 85.601562 C 212.464844 87.167969 212.835938 88.746094 213.171875 90.332031 C 213.5 91.914062 213.792969 93.503906 214.042969 95.101562 C 214.292969 96.699219 214.5 98.304688 214.667969 99.910156 C 214.832031 101.519531 214.960938 103.128906 215.042969 104.742188 C 215.125 106.355469 215.167969 107.972656 215.167969 109.585938 Z M 215.167969 109.585938 " fill-opacity="1" fill-rule="nonzero"/></g><path fill="#834578" d="M 207.914062 108.609375 C 207.914062 110.105469 207.875 111.597656 207.800781 113.085938 C 207.71875 114.578125 207.605469 116.066406 207.445312 117.554688 C 207.292969 119.042969 207.097656 120.527344 206.863281 122.003906 C 206.628906 123.480469 206.355469 124.949219 206.050781 126.414062 C 205.738281 127.882812 205.390625 129.339844 205.003906 130.785156 C 204.621094 132.234375 204.195312 133.675781 203.734375 135.105469 C 203.269531 136.535156 202.769531 137.953125 202.238281 139.355469 C 201.699219 140.765625 201.128906 142.15625 200.519531 143.535156 C 199.910156 144.917969 199.265625 146.28125 198.585938 147.632812 C 197.90625 148.984375 197.191406 150.316406 196.4375 151.636719 C 195.691406 152.949219 194.910156 154.25 194.089844 155.53125 C 193.273438 156.816406 192.421875 158.074219 191.535156 159.316406 C 190.652344 160.558594 189.738281 161.78125 188.792969 162.980469 C 187.84375 164.175781 186.867188 165.355469 185.855469 166.511719 C 184.847656 167.664062 183.808594 168.796875 182.742188 169.902344 C 181.671875 171.011719 180.578125 172.09375 179.449219 173.148438 C 178.324219 174.203125 177.175781 175.230469 175.996094 176.238281 C 174.820312 177.238281 173.613281 178.214844 172.386719 179.164062 C 171.15625 180.113281 169.898438 181.027344 168.621094 181.917969 C 167.347656 182.808594 166.046875 183.667969 164.722656 184.496094 C 163.402344 185.324219 162.058594 186.128906 160.695312 186.894531 C 159.328125 187.664062 157.945312 188.398438 156.542969 189.101562 C 155.140625 189.808594 153.71875 190.480469 152.28125 191.117188 C 150.847656 191.757812 149.390625 192.359375 147.921875 192.929688 C 146.453125 193.503906 144.96875 194.039062 143.472656 194.546875 C 141.976562 195.046875 140.464844 195.515625 138.941406 195.949219 C 137.421875 196.382812 135.886719 196.78125 134.34375 197.144531 C 132.800781 197.507812 131.25 197.832031 129.691406 198.125 C 128.132812 198.417969 126.5625 198.675781 124.988281 198.894531 C 123.417969 199.113281 121.839844 199.292969 120.253906 199.441406 C 118.675781 199.585938 117.085938 199.695312 115.496094 199.769531 C 113.910156 199.84375 112.320312 199.878906 110.734375 199.878906 C 109.140625 199.878906 107.550781 199.84375 105.964844 199.769531 C 104.375 199.695312 102.785156 199.585938 101.207031 199.441406 C 99.621094 199.292969 98.042969 199.113281 96.472656 198.894531 C 94.898438 198.675781 93.328125 198.417969 91.769531 198.125 C 90.210938 197.832031 88.660156 197.507812 87.117188 197.144531 C 85.574219 196.78125 84.039062 196.382812 82.519531 195.949219 C 80.996094 195.515625 79.484375 195.046875 77.988281 194.546875 C 76.492188 194.039062 75.007812 193.503906 73.539062 192.929688 C 72.070312 192.359375 70.613281 191.757812 69.179688 191.117188 C 67.742188 190.480469 66.320312 189.808594 64.917969 189.101562 C 63.515625 188.398438 62.132812 187.664062 60.765625 186.894531 C 59.402344 186.128906 58.0625 185.324219 56.738281 184.496094 C 55.414062 183.667969 54.117188 182.808594 52.839844 181.917969 C 51.5625 181.027344 50.304688 180.113281 49.074219 179.164062 C 47.847656 178.214844 46.640625 177.238281 45.464844 176.238281 C 44.285156 175.230469 43.136719 174.203125 42.011719 173.148438 C 40.886719 172.09375 39.789062 171.011719 38.71875 169.902344 C 37.652344 168.796875 36.613281 167.664062 35.605469 166.511719 C 34.59375 165.355469 33.617188 164.175781 32.667969 162.980469 C 31.722656 161.78125 30.808594 160.558594 29.925781 159.316406 C 29.039062 158.074219 28.191406 156.816406 27.371094 155.53125 C 26.554688 154.25 25.769531 152.949219 25.023438 151.636719 C 24.269531 150.316406 23.554688 148.984375 22.878906 147.632812 C 22.195312 146.28125 21.550781 144.917969 20.945312 143.535156 C 20.332031 142.15625 19.761719 140.765625 19.226562 139.355469 C 18.691406 137.953125 18.191406 136.535156 17.726562 135.105469 C 17.269531 133.675781 16.847656 132.234375 16.457031 130.785156 C 16.070312 129.339844 15.722656 127.882812 15.410156 126.414062 C 15.105469 124.949219 14.832031 123.480469 14.597656 122.003906 C 14.363281 120.527344 14.167969 119.042969 14.015625 117.554688 C 13.855469 116.066406 13.742188 114.578125 13.660156 113.085938 C 13.585938 111.597656 13.546875 110.105469 13.546875 108.609375 C 13.546875 107.117188 13.585938 105.625 13.660156 104.132812 C 13.742188 102.640625 13.855469 101.148438 14.015625 99.664062 C 14.167969 98.175781 14.363281 96.695312 14.597656 95.21875 C 14.832031 93.742188 15.105469 92.269531 15.410156 90.800781 C 15.722656 89.339844 16.070312 87.882812 16.457031 86.433594 C 16.847656 84.984375 17.269531 83.546875 17.726562 82.117188 C 18.191406 80.683594 18.691406 79.269531 19.226562 77.859375 C 19.761719 76.457031 20.332031 75.0625 20.945312 73.683594 C 21.550781 72.300781 22.195312 70.9375 22.878906 69.589844 C 23.554688 68.238281 24.269531 66.902344 25.023438 65.585938 C 25.769531 64.265625 26.554688 62.96875 27.371094 61.6875 C 28.191406 60.40625 29.039062 59.144531 29.925781 57.902344 C 30.808594 56.664062 31.722656 55.441406 32.667969 54.242188 C 33.617188 53.039062 34.59375 51.863281 35.605469 50.707031 C 36.613281 49.550781 37.652344 48.425781 38.71875 47.316406 C 39.789062 46.210938 40.886719 45.128906 42.011719 44.074219 C 43.136719 43.015625 44.285156 41.988281 45.464844 40.984375 C 46.640625 39.980469 47.847656 39.003906 49.074219 38.058594 C 50.304688 37.109375 51.5625 36.191406 52.839844 35.304688 C 54.117188 34.414062 55.414062 33.554688 56.738281 32.71875 C 58.0625 31.890625 59.402344 31.09375 60.765625 30.328125 C 62.132812 29.558594 63.515625 28.824219 64.917969 28.117188 C 66.320312 27.414062 67.742188 26.742188 69.179688 26.101562 C 70.613281 25.464844 72.070312 24.859375 73.539062 24.289062 C 75.007812 23.714844 76.492188 23.179688 77.988281 22.675781 C 79.484375 22.171875 80.996094 21.707031 82.519531 21.273438 C 84.039062 20.839844 85.574219 20.4375 87.117188 20.074219 C 88.660156 19.714844 90.210938 19.382812 91.769531 19.09375 C 93.328125 18.804688 94.898438 18.546875 96.472656 18.328125 C 98.042969 18.109375 99.621094 17.925781 101.207031 17.78125 C 102.785156 17.632812 104.375 17.523438 105.964844 17.449219 C 107.550781 17.378906 109.140625 17.339844 110.734375 17.339844 C 112.320312 17.339844 113.910156 17.378906 115.496094 17.449219 C 117.085938 17.523438 118.675781 17.632812 120.253906 17.78125 C 121.839844 17.925781 123.417969 18.109375 124.988281 18.328125 C 126.5625 18.546875 128.132812 18.804688 129.691406 19.09375 C 131.25 19.382812 132.800781 19.714844 134.34375 20.074219 C 135.886719 20.4375 137.421875 20.839844 138.941406 21.273438 C 140.464844 21.707031 141.976562 22.171875 143.472656 22.675781 C 144.96875 23.179688 146.453125 23.714844 147.921875 24.289062 C 149.390625 24.859375 150.847656 25.464844 152.28125 26.101562 C 153.71875 26.742188 155.140625 27.414062 156.542969 28.117188 C 157.945312 28.824219 159.328125 29.558594 160.695312 30.328125 C 162.058594 31.09375 163.402344 31.890625 164.722656 32.71875 C 166.046875 33.554688 167.347656 34.414062 168.621094 35.304688 C 169.898438 36.191406 171.15625 37.109375 172.386719 38.058594 C 173.613281 39.003906 174.820312 39.980469 175.996094 40.984375 C 177.175781 41.988281 178.324219 43.015625 179.449219 44.074219 C 180.578125 45.128906 181.671875 46.210938 182.742188 47.316406 C 183.808594 48.425781 184.847656 49.550781 185.855469 50.707031 C 186.867188 51.863281 187.84375 53.039062 188.792969 54.242188 C 189.738281 55.441406 190.652344 56.664062 191.535156 57.902344 C 192.421875 59.144531 193.273438 60.40625 194.089844 61.6875 C 194.910156 62.96875 195.691406 64.265625 196.4375 65.585938 C 197.191406 66.902344 197.90625 68.238281 198.585938 69.589844 C 199.265625 70.9375 199.910156 72.300781 200.519531 73.683594 C 201.128906 75.0625 201.699219 76.457031 202.238281 77.859375 C 202.769531 79.269531 203.269531 80.683594 203.734375 82.117188 C 204.195312 83.546875 204.621094 84.984375 205.003906 86.433594 C 205.390625 87.882812 205.738281 89.339844 206.050781 90.800781 C 206.355469 92.269531 206.628906 93.742188 206.863281 95.21875 C 207.097656 96.695312 207.292969 98.175781 207.445312 99.664062 C 207.605469 101.148438 207.71875 102.640625 207.800781 104.132812 C 207.875 105.625 207.914062 107.117188 207.914062 108.609375 Z M 207.914062 108.609375 " fill-opacity="1" fill-rule="nonzero"/><path fill="#ffffff" d="M 34.542969 91.78125 L 185.75 91.78125 L 185.75 124.886719 L 34.542969 124.886719 Z M 34.542969 91.78125 " fill-opacity="1" fill-rule="evenodd"/></svg>