<svg xmlns="http://www.w3.org/2000/svg" xmlns:xlink="http://www.w3.org/1999/xlink" width="300" zoomAndPan="magnify" viewBox="0 0 224.87999 225" height="300" preserveAspectRatio="xMidYMid meet" version="1.0"><defs><clipPath id="ae209dcce1"><path d="M 0 0.0585938 L 224.761719 0.0585938 L 224.761719 224.9375 L 0 224.9375 Z M 0 0.0585938 " clip-rule="nonzero"/></clipPath><clipPath id="be7b424804"><path d="M 26.601562 22.507812 L 198.160156 22.507812 L 198.160156 194.105469 L 26.601562 194.105469 Z M 26.601562 22.507812 " clip-rule="nonzero"/></clipPath></defs><g clip-path="url(#ae209dcce1)"><path fill="#ffffff" d="M 0 0.0585938 L 224.878906 0.0585938 L 224.878906 224.941406 L 0 224.941406 Z M 0 0.0585938 " fill-opacity="1" fill-rule="nonzero"/><path fill="#000000" d="M 0 0.0585938 L 224.878906 0.0585938 L 224.878906 224.941406 L 0 224.941406 Z M 0 0.0585938 " fill-opacity="1" fill-rule="nonzero"/></g><path fill="#ffffff" d="M 42.496094 193.464844 L 182.347656 193.464844 C 190.515625 193.464844 197.519531 186.726562 197.519531 178.289062 L 197.519531 38.410156 C 197.519531 29.976562 190.515625 23.234375 182.347656 23.234375 L 42.496094 23.234375 C 34.332031 23.234375 27.328125 29.976562 27.328125 38.410156 L 27.328125 178.289062 C 27.328125 186.726562 34.332031 193.464844 42.496094 193.464844 " fill-opacity="1" fill-rule="nonzero"/><g clip-path="url(#be7b424804)"><path stroke-linecap="butt" transform="matrix(0.0486259, 0, 0, -0.0486366, 26.59936, 194.195302)" fill="none" stroke-linejoin="bevel" d="M 326.91928 15.018687 L 3202.992561 15.018687 C 3370.968351 15.018687 3515.00498 153.562077 3515.00498 327.042497 L 3515.00498 3203.042655 C 3515.00498 3376.44276 3370.968351 3515.066466 3202.992561 3515.066466 L 326.91928 3515.066466 C 159.023823 3515.066466 14.987194 3376.44276 14.987194 3203.042655 L 14.987194 327.042497 C 14.987194 153.562077 159.023823 15.018687 326.91928 15.018687 Z M 326.91928 15.018687 " stroke="#000000" stroke-width="30" stroke-opacity="1" stroke-miterlimit="22.926001"/></g><path fill="#333366" d="M 42.558594 188.800781 L 182.871094 188.800781 L 183.386719 188.761719 L 183.898438 188.699219 L 184.402344 188.605469 L 184.902344 188.492188 L 185.394531 188.351562 L 185.875 188.183594 L 186.347656 188 L 186.8125 187.789062 L 187.269531 187.558594 L 187.710938 187.304688 L 188.140625 187.027344 L 188.554688 186.734375 L 188.957031 186.421875 L 189.347656 186.089844 L 189.71875 185.742188 L 190.074219 185.371094 L 190.410156 184.988281 L 190.730469 184.589844 L 191.03125 184.171875 L 191.308594 183.746094 L 191.566406 183.308594 L 191.800781 182.855469 L 192.019531 182.390625 L 192.207031 181.914062 L 192.375 181.425781 L 192.519531 180.929688 L 192.640625 180.429688 L 192.738281 179.910156 L 192.804688 179.386719 L 192.847656 178.855469 L 192.878906 178.246094 L 192.878906 38.488281 L 192.847656 37.882812 L 192.804688 37.347656 L 192.738281 36.824219 L 192.640625 36.308594 L 192.519531 35.804688 L 192.375 35.308594 L 192.207031 34.820312 L 192.019531 34.34375 L 191.800781 33.882812 L 191.566406 33.429688 L 191.308594 32.988281 L 191.03125 32.5625 L 190.730469 32.144531 L 190.410156 31.746094 L 190.074219 31.363281 L 189.71875 31 L 189.347656 30.648438 L 188.957031 30.3125 L 188.554688 29.996094 L 188.140625 29.707031 L 187.710938 29.425781 L 187.269531 29.179688 L 186.8125 28.941406 L 186.347656 28.738281 L 185.875 28.546875 L 185.394531 28.382812 L 184.902344 28.242188 L 184.402344 28.125 L 183.898438 28.035156 L 183.386719 27.964844 L 182.871094 27.925781 L 41.976562 27.925781 L 41.460938 27.964844 L 40.949219 28.035156 L 40.441406 28.125 L 39.945312 28.242188 L 39.453125 28.382812 L 38.972656 28.546875 L 38.5 28.738281 L 38.035156 28.941406 L 37.582031 29.179688 L 37.140625 29.425781 L 36.710938 29.707031 L 36.292969 29.996094 L 35.886719 30.3125 L 35.5 30.648438 L 35.128906 31 L 34.773438 31.363281 L 34.4375 31.746094 L 34.117188 32.144531 L 33.820312 32.5625 L 33.542969 32.988281 L 33.28125 33.429688 L 33.046875 33.882812 L 32.832031 34.34375 L 32.640625 34.820312 L 32.476562 35.308594 L 32.332031 35.804688 L 32.210938 36.308594 L 32.113281 36.824219 L 32.046875 37.347656 L 32.003906 37.882812 L 31.96875 38.488281 L 31.96875 178.246094 L 32.003906 178.855469 L 32.046875 179.386719 L 32.113281 179.910156 L 32.210938 180.429688 L 32.332031 180.929688 L 32.476562 181.425781 L 32.640625 181.914062 L 32.832031 182.390625 L 33.046875 182.851562 L 33.28125 183.308594 L 33.542969 183.746094 L 33.820312 184.171875 L 34.117188 184.589844 L 34.4375 184.988281 L 34.773438 185.371094 L 35.128906 185.742188 L 35.5 186.089844 L 35.886719 186.421875 L 36.292969 186.734375 L 36.710938 187.027344 L 37.140625 187.304688 L 37.582031 187.558594 L 38.035156 187.789062 L 38.5 188 L 38.972656 188.183594 L 39.453125 188.351562 L 39.945312 188.492188 L 40.441406 188.605469 L 40.949219 188.699219 L 41.460938 188.761719 L 41.976562 188.800781 L 42.558594 188.800781 " fill-opacity="1" fill-rule="nonzero"/><path fill="#ffffff" d="M 122.21875 65.707031 L 98.074219 65.707031 L 98.074219 107.976562 L 122.21875 107.976562 C 133.890625 107.976562 143.347656 98.511719 143.347656 86.839844 C 143.347656 75.171875 133.890625 65.707031 122.21875 65.707031 M 98.074219 173.179688 L 76.347656 173.179688 L 76.347656 46.386719 L 123.425781 46.386719 C 145.761719 46.386719 163.871094 64.5 163.871094 86.839844 C 163.871094 109.183594 145.761719 127.296875 123.425781 127.296875 L 98.074219 127.296875 L 98.074219 173.179688 " fill-opacity="1" fill-rule="nonzero"/></svg>