<svg xmlns="http://www.w3.org/2000/svg" xmlns:xlink="http://www.w3.org/1999/xlink" width="300" zoomAndPan="magnify" viewBox="0 0 224.87999 225" height="300" preserveAspectRatio="xMidYMid meet" version="1.0"><defs><clipPath id="6e20f0fdd9"><path d="M 0 0.0585938 L 224.761719 0.0585938 L 224.761719 224.9375 L 0 224.9375 Z M 0 0.0585938 " clip-rule="nonzero"/></clipPath><clipPath id="51743eaf95"><path d="M 0 18.246094 L 224.761719 18.246094 L 224.761719 206.394531 L 0 206.394531 Z M 0 18.246094 " clip-rule="nonzero"/></clipPath></defs><g clip-path="url(#6e20f0fdd9)"><path fill="#ffffff" d="M 0 0.0585938 L 224.878906 0.0585938 L 224.878906 224.941406 L 0 224.941406 Z M 0 0.0585938 " fill-opacity="1" fill-rule="nonzero"/><path fill="#000000" d="M 0 0.0585938 L 224.878906 0.0585938 L 224.878906 224.941406 L 0 224.941406 Z M 0 0.0585938 " fill-opacity="1" fill-rule="nonzero"/></g><g clip-path="url(#51743eaf95)"><path fill="#000000" d="M 242.359375 205.734375 L -16.984375 206.621094 L 47.332031 19.015625 L 177 18.570312 Z M 242.359375 205.734375 " fill-opacity="1" fill-rule="evenodd"/></g><path fill="#ececec" d="M 162.871094 51.832031 L 62.5 51.832031 L 67.074219 38.796875 L 158.296875 38.796875 Z M 162.871094 51.832031 " fill-opacity="1" fill-rule="evenodd"/><path fill="#ececec" d="M 173.527344 85.644531 L 51.847656 85.644531 L 57.464844 69.265625 L 167.90625 69.265625 Z M 173.527344 85.644531 " fill-opacity="1" fill-rule="evenodd"/><path fill="#ececec" d="M 187.667969 127.746094 L 37.511719 127.746094 L 45.488281 105.570312 L 179.691406 105.570312 Z M 187.667969 127.746094 " fill-opacity="1" fill-rule="evenodd"/><path fill="#ececec" d="M 204.074219 177.296875 L 21.296875 177.296875 L 30.785156 148.753906 L 194.585938 148.753906 Z M 204.074219 177.296875 " fill-opacity="1" fill-rule="evenodd"/></svg>