<svg xmlns="http://www.w3.org/2000/svg" xmlns:xlink="http://www.w3.org/1999/xlink" width="300" zoomAndPan="magnify" viewBox="0 0 224.87999 233.04" height="300" preserveAspectRatio="xMidYMid meet" version="1.0"><defs><clipPath id="8a83cdeb38"><path d="M 15.75 15.347656 L 209.203125 15.347656 L 209.203125 208.800781 L 15.75 208.800781 Z M 15.75 15.347656 " clip-rule="nonzero"/></clipPath></defs><g clip-path="url(#8a83cdeb38)"><path fill="#ffffff" d="M 15.75 15.347656 L 209.121094 15.347656 L 209.121094 208.722656 L 15.75 208.722656 Z M 15.75 15.347656 " fill-opacity="1" fill-rule="nonzero"/></g><path fill="#2d4186" d="M 24.75 24.347656 L 200.125 24.347656 L 200.125 199.722656 L 24.75 199.722656 Z M 24.75 24.347656 " fill-opacity="1" fill-rule="nonzero"/><path fill="#ffffff" d="M 168.308594 42.667969 L 168.308594 84.125 L 129.789062 84.125 L 129.789062 181.402344 L 95.082031 181.402344 L 95.082031 84.125 L 56.566406 84.125 L 56.566406 42.667969 Z M 168.308594 42.667969 " fill-opacity="1" fill-rule="nonzero"/><path fill="#753268" d="M 59.941406 46.042969 L 164.933594 46.042969 L 164.933594 80.75 L 59.941406 80.75 Z M 59.941406 46.042969 " fill-opacity="1" fill-rule="nonzero"/></svg>