<svg xmlns="http://www.w3.org/2000/svg" xmlns:xlink="http://www.w3.org/1999/xlink" width="300" zoomAndPan="magnify" viewBox="0 0 224.87999 225" height="300" preserveAspectRatio="xMidYMid meet" version="1.0"><defs><clipPath id="72420b67f4"><path d="M 0 0.0585938 L 224.761719 0.0585938 L 224.761719 224.9375 L 0 224.9375 Z M 0 0.0585938 " clip-rule="nonzero"/></clipPath><clipPath id="437ccd8fe0"><path d="M 21.742188 17.589844 L 203.5 17.589844 L 203.5 199.292969 L 21.742188 199.292969 Z M 21.742188 17.589844 " clip-rule="nonzero"/></clipPath></defs><g clip-path="url(#72420b67f4)"><path fill="#ffffff" d="M 0 0.0585938 L 224.878906 0.0585938 L 224.878906 224.941406 L 0 224.941406 Z M 0 0.0585938 " fill-opacity="1" fill-rule="nonzero"/><path fill="#000000" d="M 0 0.0585938 L 224.878906 0.0585938 L 224.878906 224.941406 L 0 224.941406 Z M 0 0.0585938 " fill-opacity="1" fill-rule="nonzero"/></g><g clip-path="url(#437ccd8fe0)"><path fill="#ffffff" d="M 21.742188 17.589844 L 203.421875 17.589844 L 203.421875 199.21875 L 21.742188 199.21875 Z M 21.742188 17.589844 " fill-opacity="1" fill-rule="nonzero"/></g><path fill="#2e4386" d="M 30.199219 26.042969 L 194.972656 26.042969 L 194.972656 190.765625 L 30.199219 190.765625 Z M 30.199219 26.042969 " fill-opacity="1" fill-rule="nonzero"/><path fill="#ffffff" d="M 165.078125 43.253906 L 165.078125 82.191406 L 128.886719 82.191406 L 128.886719 173.558594 L 96.277344 173.558594 L 96.277344 82.191406 L 60.089844 82.191406 L 60.089844 43.253906 Z M 165.078125 43.253906 " fill-opacity="1" fill-rule="nonzero"/><path fill="#713167" d="M 63.261719 46.421875 L 161.90625 46.421875 L 161.90625 79.019531 L 63.261719 79.019531 Z M 63.261719 46.421875 " fill-opacity="1" fill-rule="nonzero"/></svg>