<svg xmlns="http://www.w3.org/2000/svg" xmlns:xlink="http://www.w3.org/1999/xlink" width="300" zoomAndPan="magnify" viewBox="0 0 224.87999 225" height="300" preserveAspectRatio="xMidYMid meet" version="1.0"><defs><clipPath id="e420b1c769"><path d="M 0 0.0585938 L 224.761719 0.0585938 L 224.761719 224.9375 L 0 224.9375 Z M 0 0.0585938 " clip-rule="nonzero"/></clipPath><clipPath id="39b37855e6"><path d="M 7.296875 54.539062 L 217.933594 54.539062 L 217.933594 170.726562 L 7.296875 170.726562 Z M 7.296875 54.539062 " clip-rule="nonzero"/></clipPath></defs><g clip-path="url(#e420b1c769)"><path fill="#ffffff" d="M 0 0.0585938 L 224.878906 0.0585938 L 224.878906 224.941406 L 0 224.941406 Z M 0 0.0585938 " fill-opacity="1" fill-rule="nonzero"/><path fill="#000000" d="M 0 0.0585938 L 224.878906 0.0585938 L 224.878906 224.941406 L 0 224.941406 Z M 0 0.0585938 " fill-opacity="1" fill-rule="nonzero"/></g><g clip-path="url(#39b37855e6)"><path fill="#639922" d="M 7.296875 54.617188 L 217.566406 54.617188 L 217.566406 170.382812 L 7.296875 170.382812 Z M 7.296875 54.617188 " fill-opacity="1" fill-rule="nonzero"/></g><path fill="#ffffff" d="M 102.175781 130.960938 C 101.550781 129.917969 100.402344 129.269531 99.167969 129.269531 L 94.78125 129.273438 L 94.78125 63.589844 L 31.066406 63.589844 L 31.066406 99.273438 L 35.511719 99.273438 C 35.933594 99.273438 36.335938 99.09375 36.621094 98.785156 L 48.296875 86.042969 C 50.121094 84.054688 52.695312 82.921875 55.386719 82.921875 L 80.523438 82.921875 C 81.0625 82.921875 81.558594 83.210938 81.828125 83.675781 L 90.679688 99.042969 C 91.097656 99.773438 90.839844 100.703125 90.105469 101.113281 L 87.152344 102.757812 C 86.441406 103.15625 85.539062 102.914062 85.121094 102.210938 L 78.273438 90.617188 C 78 90.152344 77.5 89.867188 76.957031 89.875 L 66.828125 90.011719 C 65.691406 90.027344 64.976562 91.253906 65.53125 92.25 L 73.695312 107.007812 C 73.773438 107.148438 73.828125 107.300781 73.859375 107.460938 L 78.0625 130.101562 C 78.195312 130.816406 78.820312 131.335938 79.550781 131.332031 L 99.175781 131.25 C 99.707031 131.25 100.199219 131.527344 100.472656 131.984375 L 103.859375 137.628906 C 104.464844 138.636719 103.734375 139.917969 102.558594 139.910156 L 72.660156 139.746094 C 71.945312 139.746094 71.335938 139.242188 71.191406 138.546875 L 67.230469 119.390625 C 66.941406 117.976562 65.011719 117.746094 64.394531 119.050781 L 47.820312 154.042969 C 47.574219 154.570312 47.042969 154.90625 46.460938 154.90625 L 39.949219 154.90625 C 38.839844 154.90625 38.109375 153.742188 38.59375 152.742188 L 58.128906 112.390625 C 58.339844 111.953125 58.332031 111.445312 58.101562 111.015625 L 50.425781 96.753906 C 49.9375 95.84375 48.6875 95.6875 47.988281 96.453125 L 39.820312 105.359375 C 39.535156 105.671875 39.132812 105.847656 38.710938 105.847656 L 31.066406 105.847656 L 31.066406 153.476562 L 37.257812 161.601562 L 41.605469 161.609375 L 39.417969 158.648438 C 38.933594 157.648438 39.660156 156.484375 40.773438 156.484375 L 47.285156 156.484375 C 47.867188 156.484375 48.398438 156.820312 48.648438 157.347656 L 51.597656 161.621094 L 104.078125 161.695312 L 94.492188 153.472656 L 94.777344 141.859375 L 102.570312 141.882812 C 103.824219 141.882812 104.988281 141.207031 105.609375 140.113281 C 106.226562 139.03125 106.207031 137.683594 105.5625 136.605469 Z M 49.421875 82.097656 C 44.882812 82.097656 41.203125 78.417969 41.203125 73.875 C 41.203125 69.335938 44.882812 65.65625 49.421875 65.65625 C 53.964844 65.65625 57.644531 69.335938 57.644531 73.875 C 57.644531 78.417969 53.964844 82.097656 49.421875 82.097656 Z M 124.375 65.8125 L 142.652344 65.8125 L 142.652344 71.929688 L 131.28125 71.929688 L 131.28125 83.855469 L 140.203125 83.855469 L 140.203125 89.96875 L 131.28125 89.96875 L 131.28125 108.621094 L 124.375 108.621094 Z M 152.109375 108.617188 L 145.199219 108.617188 L 145.199219 65.8125 L 152.109375 65.8125 Z M 175.320312 103.417969 L 175.320312 95.898438 C 175.320312 93.371094 174.972656 91.351562 174.28125 89.84375 C 173.589844 88.335938 172.40625 87.339844 170.730469 86.851562 L 170.730469 86.726562 C 173.746094 85.546875 175.253906 82.730469 175.253906 78.289062 L 175.253906 75.660156 C 175.253906 72.316406 174.4375 69.839844 172.804688 68.230469 C 171.171875 66.617188 168.574219 65.8125 165.015625 65.8125 L 154.777344 65.8125 L 154.777344 108.617188 L 161.6875 108.617188 L 161.6875 90.273438 L 164.074219 90.273438 C 165.664062 90.273438 166.785156 90.660156 167.433594 91.433594 C 168.082031 92.210938 168.410156 93.578125 168.410156 95.53125 L 168.410156 103.359375 C 168.410156 104.949219 168.449219 106.050781 168.535156 106.660156 C 168.617188 107.269531 168.785156 107.925781 169.035156 108.617188 L 176.074219 108.617188 C 175.734375 107.882812 175.527344 107.136719 175.445312 106.382812 C 175.359375 105.628906 175.320312 104.640625 175.320312 103.417969 Z M 168.34375 79.632812 C 168.34375 81.265625 168 82.425781 167.308594 83.117188 C 166.617188 83.8125 165.582031 84.15625 164.199219 84.15625 L 161.6875 84.15625 L 161.6875 71.925781 L 164.828125 71.925781 C 166.039062 71.925781 166.929688 72.273438 167.496094 72.96875 C 168.0625 73.660156 168.34375 74.785156 168.34375 76.332031 Z M 185.367188 71.929688 L 185.367188 83.242188 L 194.851562 83.242188 L 194.851562 89.359375 L 185.367188 89.359375 L 185.367188 102.503906 L 197.304688 102.503906 L 197.304688 108.621094 L 178.457031 108.621094 L 178.457031 65.8125 L 197.304688 65.8125 L 197.304688 71.929688 Z M 124.136719 114.878906 L 142.480469 114.878906 L 142.480469 120.996094 L 130.859375 120.996094 L 130.859375 132.308594 L 140.09375 132.308594 L 140.09375 138.425781 L 130.859375 138.425781 L 130.859375 151.570312 L 142.480469 151.570312 L 142.480469 157.6875 L 124.136719 157.6875 Z M 159.03125 135.792969 L 166.792969 157.683594 L 159.703125 157.683594 L 154.808594 142.761719 L 154.6875 142.761719 L 149.675781 157.683594 L 143.316406 157.683594 L 151.082031 135.792969 L 143.679688 114.878906 L 150.773438 114.878906 L 155.300781 128.699219 L 155.421875 128.699219 L 160.070312 114.878906 L 166.429688 114.878906 Z M 168.101562 114.878906 L 174.824219 114.878906 L 174.824219 157.683594 L 168.101562 157.683594 Z M 176.476562 114.878906 L 197.265625 114.878906 L 197.265625 120.996094 L 190.238281 120.996094 L 190.238281 157.683594 L 183.507812 157.683594 L 183.507812 120.996094 L 176.476562 120.996094 Z M 176.476562 114.878906 " fill-opacity="1" fill-rule="nonzero"/></svg>