<svg xmlns="http://www.w3.org/2000/svg" xmlns:xlink="http://www.w3.org/1999/xlink" width="300" zoomAndPan="magnify" viewBox="0 0 224.87999 225" height="300" preserveAspectRatio="xMidYMid meet" version="1.0"><defs><clipPath id="c6bc59e74f"><path d="M 0 0.0585938 L 224.761719 0.0585938 L 224.761719 224.9375 L 0 224.9375 Z M 0 0.0585938 " clip-rule="nonzero"/></clipPath><clipPath id="4f4a52b596"><path d="M 25.175781 22.027344 L 199.449219 22.027344 L 199.449219 195.898438 L 25.175781 195.898438 Z M 25.175781 22.027344 " clip-rule="nonzero"/></clipPath><clipPath id="b572565e44"><path d="M 25.175781 21.886719 L 199.449219 21.886719 L 199.449219 195.996094 L 25.175781 195.996094 Z M 25.175781 21.886719 " clip-rule="nonzero"/></clipPath></defs><g clip-path="url(#c6bc59e74f)"><path fill="#ffffff" d="M 0 0.0585938 L 224.878906 0.0585938 L 224.878906 224.941406 L 0 224.941406 Z M 0 0.0585938 " fill-opacity="1" fill-rule="nonzero"/><path fill="#000000" d="M 0 0.0585938 L 224.878906 0.0585938 L 224.878906 224.941406 L 0 224.941406 Z M 0 0.0585938 " fill-opacity="1" fill-rule="nonzero"/></g><g clip-path="url(#4f4a52b596)"><path fill="#ffffff" d="M 40.109375 22.367188 L 184.628906 22.367188 C 192.609375 22.367188 199.078125 28.828125 199.078125 36.804688 L 199.078125 181.1875 C 199.078125 189.160156 192.609375 195.625 184.628906 195.625 L 40.109375 195.625 C 32.128906 195.625 25.660156 189.160156 25.660156 181.1875 L 25.660156 36.804688 C 25.660156 28.828125 32.128906 22.367188 40.109375 22.367188 Z M 40.109375 22.367188 " fill-opacity="1" fill-rule="nonzero"/></g><g clip-path="url(#b572565e44)"><path stroke-linecap="butt" transform="matrix(9.634358, 0, 0, 9.625442, 16.02471, 12.741431)" fill="none" stroke-linejoin="miter" d="M 2.499872 1.000033 L 17.500305 1.000033 C 18.328639 1.000033 19.000065 1.671268 19.000065 2.499964 L 19.000065 17.500086 C 19.000065 18.328376 18.328639 19.000017 17.500305 19.000017 L 2.499872 19.000017 C 1.671538 19.000017 1.000113 18.328376 1.000113 17.500086 L 1.000113 2.499964 C 1.000113 1.671268 1.671538 1.000033 2.499872 1.000033 Z M 2.499872 1.000033 " stroke="#000000" stroke-width="0.1" stroke-opacity="1" stroke-miterlimit="4"/></g><path fill="#333366" d="M 40.109375 27.179688 L 184.628906 27.179688 C 189.945312 27.179688 194.261719 31.492188 194.261719 36.804688 L 194.261719 181.1875 C 194.261719 186.5 189.945312 190.8125 184.628906 190.8125 L 40.109375 190.8125 C 34.789062 190.8125 30.476562 186.5 30.476562 181.1875 L 30.476562 36.804688 C 30.476562 31.492188 34.789062 27.179688 40.109375 27.179688 Z M 40.109375 27.179688 " fill-opacity="1" fill-rule="nonzero"/><path fill="#ffffff" d="M 170.625 181.1875 L 142.1875 181.1875 L 142.1875 117.839844 L 82.550781 117.839844 L 82.550781 181.1875 L 54.109375 181.1875 L 54.109375 36.804688 L 82.550781 36.804688 L 82.550781 88.988281 L 142.1875 88.988281 L 142.1875 36.804688 L 170.625 36.804688 Z M 170.625 181.1875 " fill-opacity="1" fill-rule="nonzero"/></svg>