<svg xmlns="http://www.w3.org/2000/svg" xmlns:xlink="http://www.w3.org/1999/xlink" width="300" zoomAndPan="magnify" viewBox="0 0 224.87999 233.04" height="300" preserveAspectRatio="xMidYMid meet" version="1.0"><defs><clipPath id="e5326d3778"><path d="M 21.253906 21 L 203.503906 21 L 203.503906 203 L 21.253906 203 Z M 21.253906 21 " clip-rule="nonzero"/></clipPath><clipPath id="8a680c2d72"><path d="M 21.253906 20.851562 L 203.503906 20.851562 L 203.503906 203.101562 L 21.253906 203.101562 Z M 21.253906 20.851562 " clip-rule="nonzero"/></clipPath></defs><g clip-path="url(#e5326d3778)"><path fill="#ffffff" d="M 36.871094 21.355469 L 188.003906 21.355469 C 196.351562 21.355469 203.117188 28.121094 203.117188 36.46875 L 203.117188 187.601562 C 203.117188 195.949219 196.351562 202.714844 188.003906 202.714844 L 36.871094 202.714844 C 28.523438 202.714844 21.757812 195.949219 21.757812 187.601562 L 21.757812 36.46875 C 21.757812 28.121094 28.523438 21.355469 36.871094 21.355469 Z M 36.871094 21.355469 " fill-opacity="1" fill-rule="nonzero"/></g><g clip-path="url(#8a680c2d72)"><path stroke-linecap="butt" transform="matrix(10.075466, 0, 0, 10.075466, 11.682214, 11.280691)" fill="none" stroke-linejoin="miter" d="M 2.500021 0.999932 L 17.500103 0.999932 C 18.328616 0.999932 19.000111 1.671427 19.000111 2.49994 L 19.000111 17.500022 C 19.000111 18.328535 18.328616 19.00003 17.500103 19.00003 L 2.500021 19.00003 C 1.671508 19.00003 1.000013 18.328535 1.000013 17.500022 L 1.000013 2.49994 C 1.000013 1.671427 1.671508 0.999932 2.500021 0.999932 Z M 2.500021 0.999932 " stroke="#000000" stroke-width="0.1" stroke-opacity="1" stroke-miterlimit="4"/></g><path fill="#333366" d="M 36.871094 26.394531 L 188.003906 26.394531 C 193.566406 26.394531 198.078125 30.90625 198.078125 36.46875 L 198.078125 187.601562 C 198.078125 193.164062 193.566406 197.675781 188.003906 197.675781 L 36.871094 197.675781 C 31.304688 197.675781 26.796875 193.164062 26.796875 187.601562 L 26.796875 36.46875 C 26.796875 30.90625 31.304688 26.394531 36.871094 26.394531 Z M 36.871094 26.394531 " fill-opacity="1" fill-rule="nonzero"/><path fill="#ffffff" d="M 173.359375 187.601562 L 143.621094 187.601562 L 143.621094 121.292969 L 81.253906 121.292969 L 81.253906 187.601562 L 51.511719 187.601562 L 51.511719 36.46875 L 81.253906 36.46875 L 81.253906 91.09375 L 143.621094 91.09375 L 143.621094 36.46875 L 173.359375 36.46875 Z M 173.359375 187.601562 " fill-opacity="1" fill-rule="nonzero"/></svg>