<svg xmlns="http://www.w3.org/2000/svg" xmlns:xlink="http://www.w3.org/1999/xlink" width="300" zoomAndPan="magnify" viewBox="0 0 224.87999 225" height="300" preserveAspectRatio="xMidYMid meet" version="1.0"><defs><clipPath id="ae538b5c94"><path d="M 0 0.0585938 L 224.761719 0.0585938 L 224.761719 224.9375 L 0 224.9375 Z M 0 0.0585938 " clip-rule="nonzero"/></clipPath><clipPath id="b0970c9c1b"><path d="M 66.070312 148.582031 L 96 148.582031 L 96 177.109375 L 66.070312 177.109375 Z M 66.070312 148.582031 " clip-rule="nonzero"/></clipPath><clipPath id="326fce08a6"><path d="M 81.035156 148.582031 L 84.566406 159.480469 L 96 159.480469 L 86.75 166.210938 L 90.285156 177.109375 L 81.035156 170.375 L 71.785156 177.109375 L 75.316406 166.210938 L 66.070312 159.480469 L 77.5 159.480469 Z M 81.035156 148.582031 " clip-rule="nonzero"/></clipPath><clipPath id="fea37d9b80"><path d="M 81.035156 148.582031 L 84.566406 159.480469 L 96 159.480469 L 86.75 166.210938 L 90.285156 177.109375 L 81.035156 170.375 L 71.785156 177.109375 L 75.316406 166.210938 L 66.070312 159.480469 L 77.5 159.480469 Z M 81.035156 148.582031 " clip-rule="nonzero"/></clipPath><clipPath id="e0fcd99530"><path d="M 101.074219 148.582031 L 131.050781 148.582031 L 131.050781 177.109375 L 101.074219 177.109375 Z M 101.074219 148.582031 " clip-rule="nonzero"/></clipPath><clipPath id="8c642d8543"><path d="M 116.042969 148.582031 L 119.574219 159.480469 L 131.003906 159.480469 L 121.757812 166.210938 L 125.289062 177.109375 L 116.042969 170.375 L 106.789062 177.109375 L 110.320312 166.210938 L 101.074219 159.480469 L 112.503906 159.480469 Z M 116.042969 148.582031 " clip-rule="nonzero"/></clipPath><clipPath id="f8a48ba6e4"><path d="M 116.042969 148.582031 L 119.574219 159.480469 L 131.003906 159.480469 L 121.757812 166.210938 L 125.289062 177.109375 L 116.042969 170.375 L 106.789062 177.109375 L 110.320312 166.210938 L 101.074219 159.480469 L 112.503906 159.480469 Z M 116.042969 148.582031 " clip-rule="nonzero"/></clipPath><clipPath id="7909db7bf5"><path d="M 136.078125 148.582031 L 166.058594 148.582031 L 166.058594 177.109375 L 136.078125 177.109375 Z M 136.078125 148.582031 " clip-rule="nonzero"/></clipPath><clipPath id="c2dfccdc2b"><path d="M 151.046875 148.582031 L 154.578125 159.480469 L 166.007812 159.480469 L 156.761719 166.210938 L 160.292969 177.109375 L 151.046875 170.375 L 141.796875 177.109375 L 145.328125 166.210938 L 136.078125 159.480469 L 147.511719 159.480469 Z M 151.046875 148.582031 " clip-rule="nonzero"/></clipPath><clipPath id="97f8fea203"><path d="M 151.046875 148.582031 L 154.578125 159.480469 L 166.007812 159.480469 L 156.761719 166.210938 L 160.292969 177.109375 L 151.046875 170.375 L 141.796875 177.109375 L 145.328125 166.210938 L 136.078125 159.480469 L 147.511719 159.480469 Z M 151.046875 148.582031 " clip-rule="nonzero"/></clipPath><clipPath id="a97fa18906"><path d="M 31.128906 148.582031 L 61.109375 148.582031 L 61.109375 177.109375 L 31.128906 177.109375 Z M 31.128906 148.582031 " clip-rule="nonzero"/></clipPath><clipPath id="28b03c400f"><path d="M 46.097656 148.582031 L 49.628906 159.480469 L 61.066406 159.480469 L 51.8125 166.210938 L 55.34375 177.109375 L 46.097656 170.375 L 36.847656 177.109375 L 40.382812 166.210938 L 31.128906 159.480469 L 42.566406 159.480469 Z M 46.097656 148.582031 " clip-rule="nonzero"/></clipPath><clipPath id="a7ddd43d75"><path d="M 46.097656 148.582031 L 49.628906 159.480469 L 61.066406 159.480469 L 51.8125 166.210938 L 55.34375 177.109375 L 46.097656 170.375 L 36.847656 177.109375 L 40.382812 166.210938 L 31.128906 159.480469 L 42.566406 159.480469 Z M 46.097656 148.582031 " clip-rule="nonzero"/></clipPath><clipPath id="57b1ab112a"><path d="M 171.085938 148.582031 L 201.035156 148.582031 L 201.035156 177.109375 L 171.085938 177.109375 Z M 171.085938 148.582031 " clip-rule="nonzero"/></clipPath><clipPath id="303f746557"><path d="M 186.050781 148.582031 L 189.582031 159.480469 L 201.015625 159.480469 L 191.765625 166.210938 L 195.300781 177.109375 L 186.050781 170.375 L 176.800781 177.109375 L 180.332031 166.210938 L 171.085938 159.480469 L 182.515625 159.480469 Z M 186.050781 148.582031 " clip-rule="nonzero"/></clipPath><clipPath id="5b12b889e5"><path d="M 186.050781 148.582031 L 189.582031 159.480469 L 201.015625 159.480469 L 191.765625 166.210938 L 195.300781 177.109375 L 186.050781 170.375 L 176.800781 177.109375 L 180.332031 166.210938 L 171.085938 159.480469 L 182.515625 159.480469 Z M 186.050781 148.582031 " clip-rule="nonzero"/></clipPath></defs><g clip-path="url(#ae538b5c94)"><path fill="#ffffff" d="M 0 0.0585938 L 224.878906 0.0585938 L 224.878906 224.941406 L 0 224.941406 Z M 0 0.0585938 " fill-opacity="1" fill-rule="nonzero"/><path fill="#000000" d="M 0 0.0585938 L 224.878906 0.0585938 L 224.878906 224.941406 L 0 224.941406 Z M 0 0.0585938 " fill-opacity="1" fill-rule="nonzero"/></g><path fill="#fdfefe" d="M 151.914062 35.464844 L 151.914062 124.996094 L 135.277344 124.996094 L 135.277344 86.628906 L 88.980469 86.628906 L 88.980469 124.996094 L 72.355469 124.996094 L 72.355469 35.464844 L 88.980469 35.464844 L 88.980469 72.425781 L 135.277344 72.425781 L 135.277344 35.464844 Z M 151.914062 35.464844 " fill-opacity="1" fill-rule="nonzero"/><g clip-path="url(#b0970c9c1b)"><g clip-path="url(#326fce08a6)"><g clip-path="url(#fea37d9b80)"><path fill="#fdfefe" d="M 66.070312 148.582031 L 96.046875 148.582031 L 96.046875 177.109375 L 66.070312 177.109375 Z M 66.070312 148.582031 " fill-opacity="1" fill-rule="nonzero"/></g></g></g><g clip-path="url(#e0fcd99530)"><g clip-path="url(#8c642d8543)"><g clip-path="url(#f8a48ba6e4)"><path fill="#fdfefe" d="M 101.074219 148.582031 L 131.050781 148.582031 L 131.050781 177.109375 L 101.074219 177.109375 Z M 101.074219 148.582031 " fill-opacity="1" fill-rule="nonzero"/></g></g></g><g clip-path="url(#7909db7bf5)"><g clip-path="url(#c2dfccdc2b)"><g clip-path="url(#97f8fea203)"><path fill="#fdfefe" d="M 136.078125 148.582031 L 166.058594 148.582031 L 166.058594 177.109375 L 136.078125 177.109375 Z M 136.078125 148.582031 " fill-opacity="1" fill-rule="nonzero"/></g></g></g><g clip-path="url(#a97fa18906)"><g clip-path="url(#28b03c400f)"><g clip-path="url(#a7ddd43d75)"><path fill="#fdfefe" d="M 31.128906 148.582031 L 61.109375 148.582031 L 61.109375 177.109375 L 31.128906 177.109375 Z M 31.128906 148.582031 " fill-opacity="1" fill-rule="nonzero"/></g></g></g><g clip-path="url(#57b1ab112a)"><g clip-path="url(#303f746557)"><g clip-path="url(#5b12b889e5)"><path fill="#fdfefe" d="M 171.085938 148.582031 L 201.0625 148.582031 L 201.0625 177.109375 L 171.085938 177.109375 Z M 171.085938 148.582031 " fill-opacity="1" fill-rule="nonzero"/></g></g></g></svg>