<svg xmlns="http://www.w3.org/2000/svg" xmlns:xlink="http://www.w3.org/1999/xlink" width="300" zoomAndPan="magnify" viewBox="0 0 224.87999 225" height="300" preserveAspectRatio="xMidYMid meet" version="1.0"><defs><g/><clipPath id="c03b56731d"><rect x="0" width="109" y="0" height="163"/></clipPath><clipPath id="49257e1c92"><path d="M 60.734375 157.960938 L 91.730469 157.960938 L 91.730469 187.460938 L 60.734375 187.460938 Z M 60.734375 157.960938 " clip-rule="nonzero"/></clipPath><clipPath id="2e75596189"><path d="M 76.207031 157.960938 L 79.859375 169.230469 L 91.683594 169.230469 L 82.117188 176.191406 L 85.773438 187.460938 L 76.207031 180.496094 L 66.644531 187.460938 L 70.296875 176.191406 L 60.734375 169.230469 L 72.554688 169.230469 Z M 76.207031 157.960938 " clip-rule="nonzero"/></clipPath><clipPath id="5f7d525a40"><path d="M 0.734375 0.960938 L 31.730469 0.960938 L 31.730469 30.460938 L 0.734375 30.460938 Z M 0.734375 0.960938 " clip-rule="nonzero"/></clipPath><clipPath id="aae5e699bc"><path d="M 16.207031 0.960938 L 19.859375 12.230469 L 31.683594 12.230469 L 22.117188 19.191406 L 25.773438 30.460938 L 16.207031 23.496094 L 6.644531 30.460938 L 10.296875 19.191406 L 0.734375 12.230469 L 12.554688 12.230469 Z M 16.207031 0.960938 " clip-rule="nonzero"/></clipPath><clipPath id="fc96117b9c"><rect x="0" width="32" y="0" height="31"/></clipPath><clipPath id="060601058b"><path d="M 96.929688 157.960938 L 127.925781 157.960938 L 127.925781 187.460938 L 96.929688 187.460938 Z M 96.929688 157.960938 " clip-rule="nonzero"/></clipPath><clipPath id="772d3730a6"><path d="M 112.40625 157.960938 L 116.058594 169.230469 L 127.878906 169.230469 L 118.316406 176.191406 L 121.96875 187.460938 L 112.40625 180.496094 L 102.839844 187.460938 L 106.492188 176.191406 L 96.929688 169.230469 L 108.75 169.230469 Z M 112.40625 157.960938 " clip-rule="nonzero"/></clipPath><clipPath id="575e987913"><path d="M 0.929688 0.960938 L 31.925781 0.960938 L 31.925781 30.460938 L 0.929688 30.460938 Z M 0.929688 0.960938 " clip-rule="nonzero"/></clipPath><clipPath id="92e9d31b15"><path d="M 16.40625 0.960938 L 20.058594 12.230469 L 31.878906 12.230469 L 22.316406 19.191406 L 25.96875 30.460938 L 16.40625 23.496094 L 6.839844 30.460938 L 10.492188 19.191406 L 0.929688 12.230469 L 12.75 12.230469 Z M 16.40625 0.960938 " clip-rule="nonzero"/></clipPath><clipPath id="5dbcbbf39c"><rect x="0" width="32" y="0" height="31"/></clipPath><clipPath id="e7324126d0"><path d="M 133.125 157.960938 L 164.125 157.960938 L 164.125 187.460938 L 133.125 187.460938 Z M 133.125 157.960938 " clip-rule="nonzero"/></clipPath><clipPath id="4ff99917e3"><path d="M 148.601562 157.960938 L 152.253906 169.230469 L 164.074219 169.230469 L 154.511719 176.191406 L 158.164062 187.460938 L 148.601562 180.496094 L 139.039062 187.460938 L 142.691406 176.191406 L 133.125 169.230469 L 144.949219 169.230469 Z M 148.601562 157.960938 " clip-rule="nonzero"/></clipPath><clipPath id="7763c8015d"><path d="M 0.125 0.960938 L 31.125 0.960938 L 31.125 30.460938 L 0.125 30.460938 Z M 0.125 0.960938 " clip-rule="nonzero"/></clipPath><clipPath id="fff146afcb"><path d="M 15.601562 0.960938 L 19.253906 12.230469 L 31.074219 12.230469 L 21.511719 19.191406 L 25.164062 30.460938 L 15.601562 23.496094 L 6.039062 30.460938 L 9.691406 19.191406 L 0.125 12.230469 L 11.949219 12.230469 Z M 15.601562 0.960938 " clip-rule="nonzero"/></clipPath><clipPath id="91ddcfbfa4"><rect x="0" width="32" y="0" height="31"/></clipPath><clipPath id="89ac4a6ddd"><path d="M 24.605469 157.960938 L 55.605469 157.960938 L 55.605469 187.460938 L 24.605469 187.460938 Z M 24.605469 157.960938 " clip-rule="nonzero"/></clipPath><clipPath id="f0a5ca54b1"><path d="M 40.082031 157.960938 L 43.734375 169.230469 L 55.558594 169.230469 L 45.992188 176.191406 L 49.644531 187.460938 L 40.082031 180.496094 L 30.519531 187.460938 L 34.171875 176.191406 L 24.605469 169.230469 L 36.429688 169.230469 Z M 40.082031 157.960938 " clip-rule="nonzero"/></clipPath><clipPath id="936440123f"><path d="M 0.605469 0.960938 L 31.605469 0.960938 L 31.605469 30.460938 L 0.605469 30.460938 Z M 0.605469 0.960938 " clip-rule="nonzero"/></clipPath><clipPath id="3ead1a1bc5"><path d="M 16.082031 0.960938 L 19.734375 12.230469 L 31.558594 12.230469 L 21.992188 19.191406 L 25.644531 30.460938 L 16.082031 23.496094 L 6.519531 30.460938 L 10.171875 19.191406 L 0.605469 12.230469 L 12.429688 12.230469 Z M 16.082031 0.960938 " clip-rule="nonzero"/></clipPath><clipPath id="3d1e372a71"><rect x="0" width="32" y="0" height="31"/></clipPath><clipPath id="1a6f31c2b5"><path d="M 169.324219 157.960938 L 200.320312 157.960938 L 200.320312 187.460938 L 169.324219 187.460938 Z M 169.324219 157.960938 " clip-rule="nonzero"/></clipPath><clipPath id="f0b1167521"><path d="M 184.796875 157.960938 L 188.449219 169.230469 L 200.273438 169.230469 L 190.707031 176.191406 L 194.363281 187.460938 L 184.796875 180.496094 L 175.234375 187.460938 L 178.886719 176.191406 L 169.324219 169.230469 L 181.144531 169.230469 Z M 184.796875 157.960938 " clip-rule="nonzero"/></clipPath><clipPath id="9a533d6785"><path d="M 0.324219 0.960938 L 31.292969 0.960938 L 31.292969 30.460938 L 0.324219 30.460938 Z M 0.324219 0.960938 " clip-rule="nonzero"/></clipPath><clipPath id="7288d10871"><path d="M 15.796875 0.960938 L 19.449219 12.230469 L 31.273438 12.230469 L 21.707031 19.191406 L 25.363281 30.460938 L 15.796875 23.496094 L 6.234375 30.460938 L 9.886719 19.191406 L 0.324219 12.230469 L 12.144531 12.230469 Z M 15.796875 0.960938 " clip-rule="nonzero"/></clipPath><clipPath id="5b7bd58d69"><rect x="0" width="32" y="0" height="31"/></clipPath></defs><g transform="matrix(1, 0, 0, 1, 54, 5)"><g clip-path="url(#c03b56731d)"><g fill="#ffffff" fill-opacity="1"><g transform="translate(0.797739, 128.57439)"><g><path d="M 94.703125 -92.578125 L 94.703125 0 L 77.5 0 L 77.5 -39.671875 L 29.625 -39.671875 L 29.625 0 L 12.4375 0 L 12.4375 -92.578125 L 29.625 -92.578125 L 29.625 -54.359375 L 77.5 -54.359375 L 77.5 -92.578125 Z M 94.703125 -92.578125 "/></g></g></g></g></g><g clip-path="url(#49257e1c92)"><g clip-path="url(#2e75596189)"><g transform="matrix(1, 0, 0, 1, 60, 157)"><g clip-path="url(#fc96117b9c)"><g clip-path="url(#5f7d525a40)"><g clip-path="url(#aae5e699bc)"><path fill="#ffffff" d="M 0.734375 0.960938 L 31.730469 0.960938 L 31.730469 30.460938 L 0.734375 30.460938 Z M 0.734375 0.960938 " fill-opacity="1" fill-rule="nonzero"/></g></g></g></g></g></g><g clip-path="url(#060601058b)"><g clip-path="url(#772d3730a6)"><g transform="matrix(1, 0, 0, 1, 96, 157)"><g clip-path="url(#5dbcbbf39c)"><g clip-path="url(#575e987913)"><g clip-path="url(#92e9d31b15)"><path fill="#ffffff" d="M 0.929688 0.960938 L 31.925781 0.960938 L 31.925781 30.460938 L 0.929688 30.460938 Z M 0.929688 0.960938 " fill-opacity="1" fill-rule="nonzero"/></g></g></g></g></g></g><g clip-path="url(#e7324126d0)"><g clip-path="url(#4ff99917e3)"><g transform="matrix(1, 0, 0, 1, 133, 157)"><g clip-path="url(#91ddcfbfa4)"><g clip-path="url(#7763c8015d)"><g clip-path="url(#fff146afcb)"><path fill="#ffffff" d="M 0.125 0.960938 L 31.125 0.960938 L 31.125 30.460938 L 0.125 30.460938 Z M 0.125 0.960938 " fill-opacity="1" fill-rule="nonzero"/></g></g></g></g></g></g><g clip-path="url(#89ac4a6ddd)"><g clip-path="url(#f0a5ca54b1)"><g transform="matrix(1, 0, 0, 1, 24, 157)"><g clip-path="url(#3d1e372a71)"><g clip-path="url(#936440123f)"><g clip-path="url(#3ead1a1bc5)"><path fill="#ffffff" d="M 0.605469 0.960938 L 31.605469 0.960938 L 31.605469 30.460938 L 0.605469 30.460938 Z M 0.605469 0.960938 " fill-opacity="1" fill-rule="nonzero"/></g></g></g></g></g></g><g clip-path="url(#1a6f31c2b5)"><g clip-path="url(#f0b1167521)"><g transform="matrix(1, 0, 0, 1, 169, 157)"><g clip-path="url(#5b7bd58d69)"><g clip-path="url(#9a533d6785)"><g clip-path="url(#7288d10871)"><path fill="#ffffff" d="M 0.324219 0.960938 L 31.320312 0.960938 L 31.320312 30.460938 L 0.324219 30.460938 Z M 0.324219 0.960938 " fill-opacity="1" fill-rule="nonzero"/></g></g></g></g></g></g></svg>