<svg xmlns="http://www.w3.org/2000/svg" xmlns:xlink="http://www.w3.org/1999/xlink" width="300" zoomAndPan="magnify" viewBox="0 0 224.87999 233.04" height="300" preserveAspectRatio="xMidYMid meet" version="1.0"><defs><clipPath id="0c7028aa48"><path d="M 7.304688 6.902344 L 217.9375 6.902344 L 217.9375 217.535156 L 7.304688 217.535156 Z M 7.304688 6.902344 " clip-rule="nonzero"/></clipPath></defs><path fill="#ffffff" d="M 216.828125 112.097656 C 216.828125 169.761719 170.097656 216.492188 112.433594 216.492188 C 54.769531 216.492188 8.039062 169.761719 8.039062 112.097656 C 8.039062 54.433594 54.769531 7.703125 112.433594 7.703125 C 170.097656 7.636719 216.828125 54.433594 216.828125 112.097656 Z M 216.828125 112.097656 " fill-opacity="1" fill-rule="nonzero"/><g clip-path="url(#0c7028aa48)"><path fill="#000000" d="M 112.433594 217.160156 C 84.367188 217.160156 57.96875 206.226562 38.105469 186.363281 C 18.238281 166.496094 7.304688 140.097656 7.304688 112.03125 C 7.304688 83.96875 18.238281 57.566406 38.105469 37.703125 C 57.96875 17.835938 84.367188 6.902344 112.433594 6.902344 C 140.5 6.902344 166.898438 17.835938 186.765625 37.703125 C 206.628906 57.566406 217.5625 83.96875 217.5625 112.03125 C 217.5625 140.097656 206.628906 166.496094 186.765625 186.363281 C 166.898438 206.226562 140.5 217.160156 112.433594 217.160156 Z M 112.433594 8.304688 C 84.703125 8.304688 58.703125 19.101562 39.105469 38.703125 C 19.503906 58.300781 8.707031 84.367188 8.707031 112.03125 C 8.707031 139.765625 19.503906 165.761719 39.105469 185.363281 C 58.703125 204.960938 84.769531 215.761719 112.433594 215.761719 C 140.167969 215.761719 166.164062 204.960938 185.765625 185.363281 C 205.363281 165.761719 216.160156 139.699219 216.160156 112.03125 C 216.160156 84.300781 205.363281 58.300781 185.765625 38.703125 C 166.164062 19.101562 140.167969 8.304688 112.433594 8.304688 Z M 112.433594 8.304688 " fill-opacity="1" fill-rule="nonzero"/></g><path fill="#333366" d="M 182.433594 42.101562 C 163.699219 23.4375 138.898438 13.105469 112.433594 13.105469 C 85.96875 13.105469 61.171875 23.371094 42.4375 42.101562 C 23.773438 60.769531 13.4375 85.632812 13.4375 112.097656 C 13.4375 138.566406 23.707031 163.363281 42.4375 182.097656 C 61.105469 200.761719 85.96875 211.09375 112.433594 211.09375 C 138.832031 211.09375 163.699219 200.828125 182.433594 182.097656 C 201.097656 163.429688 211.429688 138.566406 211.429688 112.097656 C 211.429688 85.632812 201.097656 60.769531 182.433594 42.101562 Z M 182.433594 42.101562 " fill-opacity="1" fill-rule="nonzero"/><path fill="#ffffff" d="M 146.898438 187.429688 L 120.164062 187.429688 L 120.164062 164.03125 C 120.164062 148.832031 106.832031 137.765625 91.632812 137.765625 L 60.035156 137.765625 L 60.035156 110.964844 L 91.632812 110.964844 C 120.832031 110.964844 146.898438 134.765625 146.898438 163.960938 Z M 146.898438 187.429688 " fill-opacity="1" fill-rule="nonzero"/><path fill="#ffffff" d="M 35.570312 123.699219 L 60.703125 109.164062 L 85.835938 94.699219 L 85.835938 152.695312 L 60.703125 138.230469 Z M 35.570312 123.699219 " fill-opacity="1" fill-rule="nonzero"/><path fill="#ffffff" d="M 131.898438 28.234375 L 146.367188 53.367188 L 160.898438 78.5 L 102.902344 78.5 L 117.367188 53.367188 Z M 131.898438 28.234375 " fill-opacity="1" fill-rule="nonzero"/><path fill="#ffffff" d="M 146.898438 68.769531 L 120.167969 68.769531 L 120.167969 187.363281 L 146.898438 187.363281 Z M 146.898438 68.769531 " fill-opacity="1" fill-rule="nonzero"/></svg>