<svg xmlns="http://www.w3.org/2000/svg" xmlns:xlink="http://www.w3.org/1999/xlink" width="300" zoomAndPan="magnify" viewBox="0 0 224.87999 233.04" height="300" preserveAspectRatio="xMidYMid meet" version="1.0"><defs><clipPath id="8393dbabc1"><path d="M 9 9 L 215.851562 9 L 215.851562 215.453125 L 9 215.453125 Z M 9 9 " clip-rule="nonzero"/></clipPath><clipPath id="7bd26a4501"><path d="M 8.957031 8.554688 L 215.851562 8.554688 L 215.851562 215.453125 L 8.957031 215.453125 Z M 8.957031 8.554688 " clip-rule="nonzero"/></clipPath></defs><g clip-path="url(#8393dbabc1)"><path fill="#ffffff" d="M 215.449219 112.039062 C 215.449219 168.925781 169.332031 215.042969 112.441406 215.042969 C 55.554688 215.042969 9.4375 168.925781 9.4375 112.039062 C 9.4375 55.152344 55.554688 9.03125 112.441406 9.03125 C 169.332031 9.03125 215.449219 55.152344 215.449219 112.039062 Z M 215.449219 112.039062 " fill-opacity="1" fill-rule="nonzero"/></g><g clip-path="url(#7bd26a4501)"><path stroke-linecap="butt" transform="matrix(0.319756, 0, 0, 0.319756, 87.546424, -69.835791)" fill="none" stroke-linejoin="miter" d="M 400.001091 568.79242 C 400.001091 746.699007 255.774959 890.925139 77.856156 890.925139 C -100.05043 890.925139 -244.276562 746.699007 -244.276562 568.79242 C -244.276562 390.885834 -100.05043 246.647485 77.856156 246.647485 C 255.774959 246.647485 400.001091 390.885834 400.001091 568.79242 Z M 400.001091 568.79242 " stroke="#000000" stroke-width="3.013" stroke-opacity="1" stroke-miterlimit="4"/></g><path fill="#2d4186" d="M 205.796875 112.035156 C 205.796875 163.59375 164 205.390625 112.441406 205.390625 C 60.882812 205.390625 19.085938 163.59375 19.085938 112.035156 C 19.085938 60.476562 60.882812 18.679688 112.441406 18.679688 C 164 18.679688 205.796875 60.476562 205.796875 112.035156 Z M 205.796875 112.035156 " fill-opacity="1" fill-rule="nonzero"/><path fill="#ffffff" d="M 78.449219 76.976562 L 78.21875 131.808594 L 156.90625 53.117188 L 170.902344 67.113281 L 92.671875 145.339844 L 147.835938 145.695312 L 129.101562 164.433594 L 60.566406 163.542969 L 60.3125 95.117188 Z M 78.449219 76.976562 " fill-opacity="1" fill-rule="nonzero"/></svg>