<svg xmlns="http://www.w3.org/2000/svg" xmlns:xlink="http://www.w3.org/1999/xlink" width="300" zoomAndPan="magnify" viewBox="0 0 224.87999 233.04" height="300" preserveAspectRatio="xMidYMid meet" version="1.0"><defs><clipPath id="fade782d64"><path d="M 0.675781 0.273438 L 144.003906 0.273438 L 144.003906 143.601562 L 0.675781 143.601562 Z M 0.675781 0.273438 " clip-rule="nonzero"/></clipPath><clipPath id="0f1b8458c3"><path d="M 13.292969 58.570312 L 132.394531 58.570312 L 132.394531 85.496094 L 13.292969 85.496094 Z M 13.292969 58.570312 " clip-rule="nonzero"/></clipPath><clipPath id="3830d9b6d6"><path d="M 0.292969 0.570312 L 119.394531 0.570312 L 119.394531 27.496094 L 0.292969 27.496094 Z M 0.292969 0.570312 " clip-rule="nonzero"/></clipPath><clipPath id="b74f7e0783"><rect x="0" width="120" y="0" height="28"/></clipPath><clipPath id="d5dbc2aa5b"><path d="M 12.890625 57.027344 L 131.988281 57.027344 L 131.988281 83.953125 L 12.890625 83.953125 Z M 12.890625 57.027344 " clip-rule="nonzero"/></clipPath><clipPath id="98aadae081"><path d="M 0.890625 0.0273438 L 119.988281 0.0273438 L 119.988281 26.953125 L 0.890625 26.953125 Z M 0.890625 0.0273438 " clip-rule="nonzero"/></clipPath><clipPath id="98ef7a9d60"><rect x="0" width="120" y="0" height="27"/></clipPath><clipPath id="be8216dcfc"><rect x="0" width="145" y="0" height="145"/></clipPath></defs><g transform="matrix(1, 0, 0, 1, 40, 40)"><g clip-path="url(#be8216dcfc)"><g clip-path="url(#fade782d64)"><path fill="#753268" d="M 138.542969 44.109375 C 134.933594 35.574219 129.75 27.882812 123.164062 21.296875 C 116.578125 14.714844 108.910156 9.527344 100.351562 5.921875 C 91.5 2.175781 82.117188 0.28125 72.417969 0.28125 C 62.71875 0.28125 53.332031 2.175781 44.480469 5.921875 C 35.945312 9.527344 28.253906 14.714844 21.671875 21.296875 C 15.085938 27.882812 9.902344 35.550781 6.292969 44.109375 C 2.566406 52.941406 0.675781 62.34375 0.675781 72.023438 C 0.675781 81.707031 2.566406 91.109375 6.3125 99.960938 C 9.921875 108.5 15.105469 116.1875 21.691406 122.773438 C 28.273438 129.355469 35.945312 134.542969 44.5 138.148438 C 53.351562 141.894531 62.738281 143.789062 72.4375 143.789062 C 82.136719 143.789062 91.519531 141.894531 100.371094 138.148438 C 108.910156 134.542969 116.597656 129.355469 123.183594 122.773438 C 129.769531 116.1875 134.953125 108.519531 138.5625 99.960938 C 142.308594 91.109375 144.199219 81.726562 144.199219 72.023438 C 144.199219 62.324219 142.265625 52.941406 138.542969 44.109375 Z M 72.417969 142.347656 C 33.636719 142.347656 2.113281 110.804688 2.113281 72.046875 C 2.113281 33.285156 33.65625 1.722656 72.417969 1.722656 C 111.175781 1.722656 142.71875 33.265625 142.71875 72.023438 C 142.71875 110.785156 111.195312 142.347656 72.417969 142.347656 Z M 72.417969 142.347656 " fill-opacity="1" fill-rule="nonzero"/></g><path fill="#753268" d="M 139.863281 72.023438 C 139.863281 73.128906 139.835938 74.230469 139.78125 75.335938 C 139.726562 76.4375 139.644531 77.539062 139.539062 78.636719 C 139.429688 79.734375 139.292969 80.828125 139.132812 81.921875 C 138.96875 83.011719 138.78125 84.101562 138.566406 85.183594 C 138.351562 86.265625 138.109375 87.34375 137.839844 88.414062 C 137.574219 89.484375 137.277344 90.546875 136.957031 91.605469 C 136.636719 92.660156 136.292969 93.707031 135.917969 94.746094 C 135.546875 95.785156 135.152344 96.816406 134.726562 97.835938 C 134.304688 98.855469 133.859375 99.863281 133.386719 100.863281 C 132.914062 101.859375 132.417969 102.84375 131.898438 103.820312 C 131.378906 104.792969 130.832031 105.753906 130.265625 106.699219 C 129.699219 107.644531 129.109375 108.578125 128.496094 109.496094 C 127.882812 110.414062 127.246094 111.316406 126.589844 112.203125 C 125.933594 113.089844 125.253906 113.957031 124.550781 114.8125 C 123.851562 115.664062 123.132812 116.5 122.390625 117.320312 C 121.648438 118.136719 120.886719 118.9375 120.109375 119.714844 C 119.328125 120.496094 118.527344 121.257812 117.710938 122 C 116.890625 122.738281 116.058594 123.460938 115.203125 124.160156 C 114.351562 124.859375 113.480469 125.539062 112.59375 126.199219 C 111.707031 126.855469 110.804688 127.492188 109.886719 128.105469 C 108.96875 128.71875 108.039062 129.308594 107.089844 129.875 C 106.144531 130.441406 105.183594 130.984375 104.210938 131.507812 C 103.238281 132.027344 102.25 132.523438 101.253906 132.996094 C 100.253906 133.46875 99.246094 133.914062 98.226562 134.335938 C 97.207031 134.757812 96.179688 135.15625 95.136719 135.527344 C 94.097656 135.898438 93.050781 136.246094 91.996094 136.566406 C 90.9375 136.886719 89.875 137.179688 88.804688 137.449219 C 87.734375 137.71875 86.65625 137.960938 85.574219 138.175781 C 84.492188 138.390625 83.40625 138.578125 82.3125 138.742188 C 81.222656 138.902344 80.125 139.039062 79.027344 139.144531 C 77.929688 139.253906 76.828125 139.335938 75.726562 139.390625 C 74.625 139.441406 73.519531 139.46875 72.417969 139.46875 C 71.3125 139.46875 70.210938 139.441406 69.109375 139.390625 C 68.003906 139.335938 66.90625 139.253906 65.804688 139.144531 C 64.707031 139.039062 63.613281 138.902344 62.519531 138.742188 C 61.429688 138.578125 60.339844 138.390625 59.257812 138.175781 C 58.175781 137.960938 57.101562 137.71875 56.027344 137.449219 C 54.957031 137.179688 53.894531 136.886719 52.839844 136.566406 C 51.78125 136.246094 50.734375 135.898438 49.695312 135.527344 C 48.65625 135.15625 47.625 134.757812 46.605469 134.335938 C 45.585938 133.914062 44.578125 133.46875 43.582031 132.996094 C 42.582031 132.523438 41.597656 132.027344 40.625 131.507812 C 39.648438 130.984375 38.691406 130.441406 37.742188 129.875 C 36.796875 129.308594 35.863281 128.71875 34.945312 128.105469 C 34.027344 127.492188 33.125 126.855469 32.238281 126.199219 C 31.355469 125.539062 30.484375 124.859375 29.628906 124.160156 C 28.777344 123.460938 27.941406 122.738281 27.125 122 C 26.304688 121.257812 25.507812 120.496094 24.726562 119.714844 C 23.945312 118.9375 23.183594 118.136719 22.445312 117.320312 C 21.703125 116.5 20.980469 115.664062 20.28125 114.8125 C 19.582031 113.957031 18.902344 113.089844 18.246094 112.203125 C 17.585938 111.316406 16.953125 110.414062 16.339844 109.496094 C 15.726562 108.578125 15.136719 107.644531 14.566406 106.699219 C 14 105.753906 13.457031 104.792969 12.9375 103.820312 C 12.414062 102.84375 11.917969 101.859375 11.449219 100.863281 C 10.976562 99.863281 10.527344 98.855469 10.105469 97.835938 C 9.683594 96.816406 9.285156 95.785156 8.914062 94.746094 C 8.542969 93.707031 8.195312 92.660156 7.875 91.605469 C 7.554688 90.546875 7.261719 89.484375 6.992188 88.414062 C 6.726562 87.34375 6.484375 86.265625 6.269531 85.183594 C 6.050781 84.101562 5.863281 83.011719 5.703125 81.921875 C 5.539062 80.828125 5.40625 79.734375 5.296875 78.636719 C 5.1875 77.539062 5.109375 76.4375 5.054688 75.335938 C 5 74.230469 4.972656 73.128906 4.972656 72.023438 C 4.972656 70.921875 5 69.820312 5.054688 68.714844 C 5.109375 67.613281 5.1875 66.511719 5.296875 65.414062 C 5.40625 64.316406 5.539062 63.222656 5.703125 62.128906 C 5.863281 61.039062 6.050781 59.949219 6.269531 58.867188 C 6.484375 57.785156 6.726562 56.707031 6.992188 55.636719 C 7.261719 54.566406 7.554688 53.503906 7.875 52.445312 C 8.195312 51.390625 8.542969 50.34375 8.914062 49.304688 C 9.285156 48.265625 9.683594 47.234375 10.105469 46.214844 C 10.527344 45.195312 10.976562 44.1875 11.449219 43.1875 C 11.917969 42.191406 12.414062 41.207031 12.9375 40.230469 C 13.457031 39.257812 14 38.296875 14.566406 37.351562 C 15.136719 36.40625 15.726562 35.472656 16.339844 34.554688 C 16.953125 33.636719 17.585938 32.734375 18.246094 31.847656 C 18.902344 30.960938 19.582031 30.09375 20.28125 29.238281 C 20.980469 28.386719 21.703125 27.550781 22.445312 26.730469 C 23.183594 25.914062 23.945312 25.113281 24.726562 24.335938 C 25.507812 23.554688 26.304688 22.792969 27.125 22.050781 C 27.941406 21.3125 28.777344 20.589844 29.628906 19.890625 C 30.484375 19.191406 31.355469 18.511719 32.238281 17.851562 C 33.125 17.195312 34.027344 16.558594 34.945312 15.945312 C 35.863281 15.332031 36.796875 14.742188 37.742188 14.175781 C 38.691406 13.609375 39.648438 13.066406 40.625 12.542969 C 41.597656 12.023438 42.582031 11.527344 43.582031 11.054688 C 44.578125 10.582031 45.585938 10.136719 46.605469 9.714844 C 47.625 9.292969 48.65625 8.894531 49.695312 8.523438 C 50.734375 8.152344 51.78125 7.804688 52.839844 7.484375 C 53.894531 7.164062 54.957031 6.871094 56.027344 6.601562 C 57.101562 6.332031 58.175781 6.089844 59.257812 5.875 C 60.339844 5.660156 61.429688 5.472656 62.519531 5.308594 C 63.613281 5.148438 64.707031 5.011719 65.804688 4.90625 C 66.90625 4.796875 68.003906 4.714844 69.109375 4.660156 C 70.210938 4.609375 71.3125 4.582031 72.417969 4.582031 C 73.519531 4.582031 74.625 4.609375 75.726562 4.660156 C 76.828125 4.714844 77.929688 4.796875 79.027344 4.90625 C 80.125 5.011719 81.222656 5.148438 82.3125 5.308594 C 83.40625 5.472656 84.492188 5.660156 85.574219 5.875 C 86.65625 6.089844 87.734375 6.332031 88.804688 6.601562 C 89.875 6.871094 90.9375 7.164062 91.996094 7.484375 C 93.050781 7.804688 94.097656 8.152344 95.136719 8.523438 C 96.179688 8.894531 97.207031 9.292969 98.226562 9.714844 C 99.246094 10.136719 100.253906 10.582031 101.253906 11.054688 C 102.25 11.527344 103.238281 12.023438 104.210938 12.542969 C 105.183594 13.066406 106.144531 13.609375 107.089844 14.175781 C 108.039062 14.742188 108.96875 15.332031 109.886719 15.945312 C 110.804688 16.558594 111.707031 17.195312 112.59375 17.851562 C 113.480469 18.511719 114.351562 19.191406 115.203125 19.890625 C 116.058594 20.589844 116.890625 21.3125 117.710938 22.050781 C 118.527344 22.792969 119.328125 23.554688 120.109375 24.335938 C 120.886719 25.113281 121.648438 25.914062 122.390625 26.730469 C 123.132812 27.550781 123.851562 28.386719 124.550781 29.238281 C 125.253906 30.09375 125.933594 30.960938 126.589844 31.847656 C 127.246094 32.734375 127.882812 33.636719 128.496094 34.554688 C 129.109375 35.472656 129.699219 36.40625 130.265625 37.351562 C 130.832031 38.296875 131.378906 39.257812 131.898438 40.230469 C 132.417969 41.207031 132.914062 42.191406 133.386719 43.1875 C 133.859375 44.1875 134.304688 45.195312 134.726562 46.214844 C 135.152344 47.234375 135.546875 48.265625 135.917969 49.304688 C 136.292969 50.34375 136.636719 51.390625 136.957031 52.445312 C 137.277344 53.503906 137.574219 54.566406 137.839844 55.636719 C 138.109375 56.707031 138.351562 57.785156 138.566406 58.867188 C 138.78125 59.949219 138.96875 61.039062 139.132812 62.128906 C 139.292969 63.222656 139.429688 64.316406 139.539062 65.414062 C 139.644531 66.511719 139.726562 67.613281 139.78125 68.714844 C 139.835938 69.820312 139.863281 70.921875 139.863281 72.023438 Z M 139.863281 72.023438 " fill-opacity="1" fill-rule="nonzero"/><path fill="#ffffff" d="M 13.863281 59.347656 L 130.992188 59.347656 L 130.992188 84.722656 L 13.863281 84.722656 Z M 13.863281 59.347656 " fill-opacity="1" fill-rule="nonzero"/><path fill="#ffffff" d="M 65.320312 34.902344 C 65.320312 38.195312 65.417969 41.152344 65.714844 44.03125 L 65.65625 44.03125 C 64.648438 41.566406 63.386719 38.863281 62.105469 36.558594 L 57.570312 28.574219 L 51.816406 28.574219 L 51.816406 50.359375 L 56.347656 50.359375 L 56.347656 43.792969 C 56.347656 40.246094 56.289062 37.167969 56.132812 34.25 L 56.269531 34.25 C 57.296875 36.8125 58.753906 39.613281 60.054688 41.941406 L 64.707031 50.359375 L 69.875 50.359375 L 69.875 28.554688 L 65.339844 28.554688 L 65.339844 34.902344 Z M 65.320312 34.902344 " fill-opacity="1" fill-rule="nonzero"/><path fill="#ffffff" d="M 83.734375 28.179688 C 77.324219 28.179688 73.125 33.070312 73.125 39.59375 C 73.125 45.84375 76.953125 50.714844 83.378906 50.714844 C 89.785156 50.714844 94.082031 46.414062 94.082031 39.238281 C 94.082031 33.1875 90.417969 28.179688 83.734375 28.179688 Z M 83.636719 46.808594 C 80.34375 46.808594 78.332031 43.792969 78.332031 39.496094 C 78.332031 35.257812 80.261719 32.082031 83.636719 32.082031 C 87.027344 32.082031 88.878906 35.453125 88.878906 39.398438 C 88.878906 43.636719 86.964844 46.808594 83.636719 46.808594 Z M 83.636719 46.808594 " fill-opacity="1" fill-rule="nonzero"/><path fill="#ffffff" d="M 31.824219 106.429688 L 39.828125 106.429688 L 39.828125 102.40625 L 31.824219 102.40625 L 31.824219 97.890625 L 40.320312 97.890625 L 40.320312 93.851562 L 26.894531 93.851562 L 26.894531 115.636719 L 40.773438 115.636719 L 40.773438 111.59375 L 31.824219 111.59375 Z M 31.824219 106.429688 " fill-opacity="1" fill-rule="nonzero"/><path fill="#ffffff" d="M 57.652344 100.179688 C 57.652344 103.472656 57.75 106.429688 58.042969 109.304688 L 57.984375 109.304688 C 56.980469 106.84375 55.71875 104.140625 54.4375 101.835938 L 49.902344 93.851562 L 44.144531 93.851562 L 44.144531 115.65625 L 48.679688 115.65625 L 48.679688 109.089844 C 48.679688 105.539062 48.621094 102.464844 48.464844 99.546875 L 48.601562 99.546875 C 49.625 102.109375 51.085938 104.910156 52.386719 107.238281 L 57.039062 115.65625 L 62.183594 115.65625 L 62.183594 93.851562 L 57.652344 93.851562 Z M 57.652344 100.179688 " fill-opacity="1" fill-rule="nonzero"/><path fill="#ffffff" d="M 64.808594 97.988281 L 70.703125 97.988281 L 70.703125 115.636719 L 75.609375 115.636719 L 75.609375 97.988281 L 81.566406 97.988281 L 81.566406 93.851562 L 64.808594 93.851562 Z M 64.808594 97.988281 " fill-opacity="1" fill-rule="nonzero"/><path fill="#ffffff" d="M 95.996094 105.421875 L 95.996094 105.324219 C 97.867188 104.652344 99.839844 102.742188 99.839844 99.980469 C 99.839844 97.96875 99.128906 96.433594 97.808594 95.386719 C 96.253906 94.164062 93.984375 93.671875 90.753906 93.671875 C 88.089844 93.671875 85.765625 93.871094 84.1875 94.125 L 84.1875 115.636719 L 89.078125 115.636719 L 89.078125 107.058594 L 90.535156 107.058594 C 92.566406 107.097656 93.511719 107.808594 94.125 110.546875 C 94.734375 113.230469 95.285156 114.984375 95.601562 115.636719 L 100.648438 115.636719 C 100.234375 114.789062 99.585938 111.949219 98.894531 109.464844 C 98.34375 107.453125 97.515625 106.035156 95.996094 105.421875 Z M 91.007812 103.511719 L 89.078125 103.511719 L 89.078125 97.515625 C 89.429688 97.417969 90.101562 97.359375 91.304688 97.359375 C 93.570312 97.359375 94.929688 98.382812 94.929688 100.375 C 94.910156 102.289062 93.472656 103.511719 91.007812 103.511719 Z M 91.007812 103.511719 " fill-opacity="1" fill-rule="nonzero"/><path fill="#ffffff" d="M 114.351562 93.851562 L 112.144531 99.09375 C 111.492188 100.652344 110.980469 101.914062 110.488281 103.273438 L 110.425781 103.273438 C 109.914062 101.855469 109.421875 100.691406 108.75 99.09375 L 106.542969 93.851562 L 100.886719 93.851562 L 107.765625 106.722656 L 107.765625 115.65625 L 112.675781 115.65625 L 112.675781 106.546875 L 119.851562 93.832031 L 114.351562 93.832031 Z M 114.351562 93.851562 " fill-opacity="1" fill-rule="nonzero"/><g clip-path="url(#0f1b8458c3)"><g transform="matrix(1, 0, 0, 1, 13, 58)"><g clip-path="url(#b74f7e0783)"><g clip-path="url(#3830d9b6d6)"><path fill="#753268" d="M 0.292969 0.570312 L 119.363281 0.570312 L 119.363281 27.496094 L 0.292969 27.496094 Z M 0.292969 0.570312 " fill-opacity="1" fill-rule="nonzero"/></g></g></g></g><g clip-path="url(#d5dbc2aa5b)"><g transform="matrix(1, 0, 0, 1, 12, 57)"><g clip-path="url(#98ef7a9d60)"><g clip-path="url(#98aadae081)"><path fill="#ffffff" d="M 0.890625 0.0273438 L 119.957031 0.0273438 L 119.957031 26.953125 L 0.890625 26.953125 Z M 0.890625 0.0273438 " fill-opacity="1" fill-rule="nonzero"/></g></g></g></g></g></g></svg>