<svg xmlns="http://www.w3.org/2000/svg" xmlns:xlink="http://www.w3.org/1999/xlink" width="300" zoomAndPan="magnify" viewBox="0 0 224.87999 233.04" height="300" preserveAspectRatio="xMidYMid meet" version="1.0"><defs><clipPath id="bcedc1b6a9"><path d="M 9.449219 9.046875 L 215.597656 9.046875 L 215.597656 215.199219 L 9.449219 215.199219 Z M 9.449219 9.046875 " clip-rule="nonzero"/></clipPath></defs><path fill="#2d4186" d="M 201.171875 110.40625 C 201.171875 111.898438 201.136719 113.390625 201.0625 114.878906 C 200.988281 116.371094 200.878906 117.859375 200.734375 119.34375 C 200.589844 120.828125 200.40625 122.3125 200.1875 123.789062 C 199.96875 125.265625 199.710938 126.734375 199.421875 128.199219 C 199.128906 129.664062 198.800781 131.117188 198.441406 132.566406 C 198.078125 134.015625 197.679688 135.453125 197.246094 136.878906 C 196.8125 138.308594 196.34375 139.726562 195.839844 141.132812 C 195.339844 142.535156 194.800781 143.929688 194.230469 145.308594 C 193.660156 146.6875 193.054688 148.050781 192.414062 149.402344 C 191.777344 150.75 191.105469 152.082031 190.402344 153.398438 C 189.699219 154.714844 188.964844 156.015625 188.195312 157.296875 C 187.429688 158.574219 186.628906 159.835938 185.800781 161.078125 C 184.972656 162.320312 184.113281 163.539062 183.222656 164.738281 C 182.335938 165.9375 181.417969 167.113281 180.46875 168.265625 C 179.523438 169.421875 178.546875 170.550781 177.546875 171.65625 C 176.542969 172.761719 175.511719 173.84375 174.457031 174.898438 C 173.402344 175.953125 172.320312 176.984375 171.214844 177.984375 C 170.109375 178.988281 168.980469 179.964844 167.828125 180.910156 C 166.671875 181.855469 165.496094 182.773438 164.296875 183.664062 C 163.097656 184.554688 161.878906 185.414062 160.636719 186.242188 C 159.394531 187.070312 158.132812 187.871094 156.855469 188.636719 C 155.574219 189.40625 154.277344 190.140625 152.960938 190.84375 C 151.644531 191.546875 150.308594 192.21875 148.960938 192.855469 C 147.609375 193.496094 146.246094 194.101562 144.867188 194.671875 C 143.488281 195.242188 142.097656 195.777344 140.691406 196.28125 C 139.285156 196.785156 137.867188 197.253906 136.441406 197.6875 C 135.011719 198.121094 133.574219 198.515625 132.125 198.878906 C 130.675781 199.242188 129.222656 199.570312 127.757812 199.863281 C 126.292969 200.152344 124.824219 200.40625 123.347656 200.625 C 121.871094 200.84375 120.390625 201.027344 118.90625 201.175781 C 117.417969 201.320312 115.929688 201.429688 114.4375 201.503906 C 112.949219 201.578125 111.457031 201.613281 109.964844 201.613281 C 108.472656 201.613281 106.980469 201.578125 105.488281 201.503906 C 103.996094 201.429688 102.507812 201.320312 101.023438 201.175781 C 99.539062 201.027344 98.058594 200.84375 96.582031 200.625 C 95.105469 200.40625 93.632812 200.152344 92.171875 199.863281 C 90.707031 199.570312 89.25 199.242188 87.800781 198.878906 C 86.355469 198.515625 84.914062 198.121094 83.488281 197.6875 C 82.058594 197.253906 80.640625 196.785156 79.234375 196.28125 C 77.832031 195.777344 76.4375 195.242188 75.058594 194.671875 C 73.679688 194.101562 72.316406 193.496094 70.96875 192.855469 C 69.617188 192.21875 68.285156 191.546875 66.96875 190.84375 C 65.652344 190.140625 64.351562 189.40625 63.074219 188.636719 C 61.792969 187.871094 60.53125 187.070312 59.289062 186.242188 C 58.050781 185.414062 56.828125 184.554688 55.628906 183.664062 C 54.429688 182.773438 53.253906 181.855469 52.101562 180.910156 C 50.949219 179.964844 49.816406 178.988281 48.710938 177.984375 C 47.605469 176.984375 46.523438 175.953125 45.46875 174.898438 C 44.414062 173.84375 43.386719 172.761719 42.382812 171.65625 C 41.378906 170.550781 40.40625 169.421875 39.457031 168.265625 C 38.511719 167.113281 37.59375 165.9375 36.703125 164.738281 C 35.8125 163.539062 34.957031 162.320312 34.125 161.078125 C 33.296875 159.835938 32.5 158.574219 31.730469 157.296875 C 30.964844 156.015625 30.226562 154.714844 29.523438 153.398438 C 28.820312 152.082031 28.148438 150.75 27.511719 149.402344 C 26.875 148.050781 26.269531 146.6875 25.699219 145.308594 C 25.125 143.929688 24.589844 142.535156 24.085938 141.132812 C 23.582031 139.726562 23.113281 138.308594 22.683594 136.882812 C 22.25 135.453125 21.851562 134.015625 21.488281 132.566406 C 21.125 131.117188 20.796875 129.664062 20.507812 128.199219 C 20.214844 126.734375 19.960938 125.265625 19.742188 123.789062 C 19.523438 122.3125 19.339844 120.828125 19.195312 119.34375 C 19.046875 117.859375 18.9375 116.371094 18.867188 114.878906 C 18.792969 113.390625 18.753906 111.898438 18.753906 110.40625 C 18.753906 108.910156 18.792969 107.417969 18.867188 105.929688 C 18.9375 104.4375 19.046875 102.949219 19.195312 101.464844 C 19.339844 99.980469 19.523438 98.496094 19.742188 97.019531 C 19.960938 95.542969 20.214844 94.074219 20.507812 92.609375 C 20.796875 91.144531 21.125 89.691406 21.488281 88.242188 C 21.851562 86.792969 22.25 85.355469 22.683594 83.929688 C 23.117188 82.5 23.582031 81.082031 24.085938 79.675781 C 24.589844 78.273438 25.125 76.878906 25.699219 75.5 C 26.269531 74.121094 26.875 72.757812 27.511719 71.40625 C 28.148438 70.058594 28.820312 68.726562 29.523438 67.410156 C 30.226562 66.09375 30.964844 64.792969 31.730469 63.515625 C 32.5 62.234375 33.296875 60.972656 34.125 59.730469 C 34.957031 58.488281 35.8125 57.269531 36.703125 56.070312 C 37.59375 54.871094 38.511719 53.695312 39.460938 52.542969 C 40.40625 51.386719 41.378906 50.257812 42.382812 49.152344 C 43.386719 48.046875 44.414062 46.964844 45.46875 45.910156 C 46.523438 44.855469 47.605469 43.824219 48.710938 42.824219 C 49.816406 41.820312 50.949219 40.847656 52.101562 39.898438 C 53.253906 38.953125 54.433594 38.035156 55.632812 37.144531 C 56.828125 36.257812 58.050781 35.398438 59.289062 34.566406 C 60.53125 33.738281 61.792969 32.941406 63.074219 32.171875 C 64.351562 31.40625 65.652344 30.667969 66.96875 29.964844 C 68.285156 29.261719 69.617188 28.589844 70.96875 27.953125 C 72.316406 27.316406 73.679688 26.710938 75.058594 26.136719 C 76.4375 25.566406 77.832031 25.03125 79.238281 24.527344 C 80.640625 24.023438 82.058594 23.554688 83.488281 23.121094 C 84.917969 22.691406 86.355469 22.292969 87.800781 21.929688 C 89.25 21.566406 90.707031 21.238281 92.171875 20.949219 C 93.632812 20.65625 95.105469 20.402344 96.582031 20.183594 C 98.058594 19.964844 99.539062 19.78125 101.023438 19.636719 C 102.511719 19.488281 103.996094 19.378906 105.488281 19.304688 C 106.980469 19.234375 108.472656 19.195312 109.964844 19.195312 C 111.457031 19.195312 112.949219 19.234375 114.441406 19.304688 C 115.929688 19.378906 117.417969 19.488281 118.902344 19.636719 C 120.390625 19.78125 121.871094 19.964844 123.347656 20.183594 C 124.824219 20.402344 126.292969 20.65625 127.757812 20.949219 C 129.222656 21.238281 130.675781 21.566406 132.125 21.929688 C 133.574219 22.292969 135.011719 22.691406 136.441406 23.121094 C 137.867188 23.554688 139.285156 24.023438 140.691406 24.527344 C 142.097656 25.03125 143.488281 25.566406 144.867188 26.136719 C 146.246094 26.710938 147.609375 27.316406 148.960938 27.953125 C 150.308594 28.589844 151.640625 29.261719 152.960938 29.964844 C 154.273438 30.667969 155.574219 31.40625 156.855469 32.171875 C 158.132812 32.941406 159.394531 33.738281 160.636719 34.566406 C 161.878906 35.398438 163.097656 36.257812 164.296875 37.144531 C 165.496094 38.035156 166.671875 38.953125 167.828125 39.898438 C 168.980469 40.847656 170.109375 41.820312 171.214844 42.824219 C 172.320312 43.824219 173.402344 44.855469 174.457031 45.910156 C 175.511719 46.964844 176.542969 48.046875 177.546875 49.152344 C 178.546875 50.257812 179.523438 51.386719 180.46875 52.542969 C 181.417969 53.695312 182.335938 54.871094 183.222656 56.070312 C 184.113281 57.269531 184.972656 58.488281 185.800781 59.730469 C 186.628906 60.972656 187.425781 62.234375 188.195312 63.515625 C 188.964844 64.792969 189.699219 66.09375 190.402344 67.410156 C 191.105469 68.726562 191.777344 70.058594 192.414062 71.40625 C 193.054688 72.757812 193.65625 74.121094 194.230469 75.5 C 194.800781 76.878906 195.335938 78.273438 195.839844 79.675781 C 196.34375 81.082031 196.8125 82.5 197.246094 83.929688 C 197.679688 85.355469 198.078125 86.792969 198.4375 88.242188 C 198.800781 89.691406 199.128906 91.144531 199.421875 92.609375 C 199.710938 94.074219 199.96875 95.542969 200.1875 97.019531 C 200.40625 98.496094 200.589844 99.980469 200.734375 101.464844 C 200.878906 102.949219 200.988281 104.4375 201.0625 105.929688 C 201.136719 107.417969 201.171875 108.910156 201.171875 110.40625 Z M 201.171875 110.40625 " fill-opacity="1" fill-rule="nonzero"/><path fill="#753268" d="M 180.167969 173.425781 L 173.148438 180.445312 C 171.210938 182.382812 168.066406 182.382812 166.128906 180.445312 L 44.703125 59.023438 C 42.769531 57.085938 42.769531 53.941406 44.703125 52.003906 L 51.722656 44.984375 C 53.660156 43.046875 56.804688 43.046875 58.742188 44.984375 L 180.167969 166.410156 C 182.105469 168.34375 182.105469 171.492188 180.167969 173.425781 Z M 180.167969 173.425781 " fill-opacity="1" fill-rule="evenodd"/><g clip-path="url(#bcedc1b6a9)"><path fill="#753268" d="M 112.433594 9.046875 C 169.273438 9.046875 215.421875 55.191406 215.421875 112.03125 C 215.421875 168.875 169.273438 215.019531 112.433594 215.019531 C 55.59375 215.019531 9.449219 168.875 9.449219 112.03125 C 9.449219 55.191406 55.59375 9.046875 112.433594 9.046875 Z M 112.433594 27.738281 C 158.957031 27.738281 196.726562 65.511719 196.726562 112.03125 C 196.726562 158.554688 158.957031 196.324219 112.433594 196.324219 C 65.910156 196.324219 28.140625 158.554688 28.140625 112.03125 C 28.140625 65.511719 65.910156 27.738281 112.433594 27.738281 Z M 112.433594 27.738281 " fill-opacity="1" fill-rule="evenodd"/></g></svg>