<svg xmlns="http://www.w3.org/2000/svg" xmlns:xlink="http://www.w3.org/1999/xlink" width="300" zoomAndPan="magnify" viewBox="0 0 224.87999 233.04" height="300" preserveAspectRatio="xMidYMid meet" version="1.0"><defs><clipPath id="dbe25db3c2"><path d="M 4.128906 4 L 220.734375 4 L 220.734375 220 L 4.128906 220 Z M 4.128906 4 " clip-rule="nonzero"/></clipPath><clipPath id="3803e89da6"><path d="M 4.128906 3.726562 L 220.734375 3.726562 L 220.734375 220.332031 L 4.128906 220.332031 Z M 4.128906 3.726562 " clip-rule="nonzero"/></clipPath></defs><g clip-path="url(#dbe25db3c2)"><path fill="#ffffff" d="M 205.09375 219.914062 C 213.433594 219.914062 220.316406 213.03125 220.316406 204.691406 L 220.316406 19.378906 C 220.316406 11.035156 213.433594 4.15625 205.09375 4.15625 L 19.78125 4.15625 C 11.441406 4.15625 4.558594 11.035156 4.558594 19.378906 L 4.558594 204.691406 C 4.558594 213.03125 11.441406 219.914062 19.78125 219.914062 Z M 205.09375 219.914062 " fill-opacity="1" fill-rule="evenodd"/></g><g clip-path="url(#3803e89da6)"><path stroke-linecap="butt" transform="matrix(0.431518, 0, 0, 0.431518, 1536.917582, 2216.964244)" fill="none" stroke-linejoin="miter" d="M -3086.367594 -4627.96266 C -3067.040846 -4627.96266 -3051.090621 -4643.912884 -3051.090621 -4663.239632 L -3051.090621 -5092.682687 C -3051.090621 -5112.018487 -3067.040846 -5127.95966 -3086.367594 -5127.95966 L -3515.810649 -5127.95966 C -3535.137397 -5127.95966 -3551.087621 -5112.018487 -3551.087621 -5092.682687 L -3551.087621 -4663.239632 C -3551.087621 -4643.912884 -3535.137397 -4627.96266 -3515.810649 -4627.96266 Z M -3086.367594 -4627.96266 " stroke="#000000" stroke-width="2" stroke-opacity="1" stroke-miterlimit="4"/></g><path fill="#2d4186" d="M 19.785156 213.140625 C 15.136719 213.140625 11.332031 209.339844 11.332031 204.6875 L 11.332031 19.386719 C 11.332031 14.730469 15.136719 10.933594 19.785156 10.933594 L 205.089844 10.933594 C 209.742188 10.933594 213.542969 14.730469 213.542969 19.386719 L 213.542969 204.6875 C 213.542969 209.339844 209.742188 213.140625 205.089844 213.140625 Z M 19.785156 213.140625 " fill-opacity="1" fill-rule="evenodd"/><path fill="#ffffff" d="M 24.300781 185.113281 L 200.574219 185.113281 L 112.4375 32.363281 Z M 24.300781 185.113281 " fill-opacity="1" fill-rule="evenodd"/><path fill="#000000" d="M 85.421875 156.21875 L 106.902344 112.261719 L 105.121094 105.808594 L 92.878906 118.441406 C 89.039062 121.886719 83.367188 116.042969 87.09375 112.316406 L 108.347656 88.003906 C 110.683594 86.335938 111.683594 85.777344 114.078125 84.554688 C 116.695312 83.273438 117.304688 83.273438 119.808594 85.554688 L 138.78125 104.863281 C 139.449219 105.589844 139.730469 105.421875 140.007812 107.089844 L 140.007812 116.546875 C 140.007812 120.773438 132.160156 120.71875 132.050781 116.492188 L 132.050781 109.089844 L 124.984375 103.972656 L 122.421875 111.039062 C 128.320312 126.894531 133.164062 141.195312 139.0625 156.992188 C 141.730469 164.453125 132.605469 168.066406 128.933594 160.835938 L 114.191406 121.5 C 107.570312 135.074219 101.617188 147.875 94.996094 161.390625 C 91.152344 168.292969 81.75 162.949219 85.421875 156.21875 " fill-opacity="1" fill-rule="evenodd"/><path fill="#000000" d="M 109.015625 67.917969 C 112.964844 67.917969 116.136719 71.148438 116.136719 75.09375 C 116.136719 79.046875 112.964844 82.273438 109.015625 82.273438 C 105.0625 82.273438 101.839844 79.046875 101.839844 75.09375 C 101.839844 71.148438 105.0625 67.917969 109.015625 67.917969 " fill-opacity="1" fill-rule="evenodd"/><path fill="#000000" d="M 57.4375 144.535156 L 69.121094 144.535156 L 55.433594 176.914062 L 39.074219 176.914062 Z M 57.4375 144.535156 " fill-opacity="1" fill-rule="evenodd"/><path fill="#000000" d="M 167.4375 144.535156 L 155.753906 144.535156 L 169.441406 176.914062 L 185.800781 176.914062 Z M 167.4375 144.535156 " fill-opacity="1" fill-rule="evenodd"/><path fill="#000000" d="M 82.421875 144.144531 L 88.488281 144.144531 L 83.199219 155.605469 C 80.417969 163.171875 85.203125 166.566406 89.988281 167.566406 L 88.984375 176.917969 L 71.957031 176.917969 Z M 82.421875 144.144531 " fill-opacity="1" fill-rule="evenodd"/><path fill="#000000" d="M 142.675781 144.144531 L 137.226562 144.144531 L 141.398438 156.21875 C 144.179688 163.785156 138.285156 166.289062 134.945312 167.289062 L 136.113281 176.917969 L 153.136719 176.917969 Z M 142.675781 144.144531 " fill-opacity="1" fill-rule="evenodd"/><path fill="#000000" d="M 107.070312 144.035156 L 118.363281 144.035156 L 120.089844 176.917969 L 105.398438 176.917969 Z M 107.070312 144.035156 " fill-opacity="1" fill-rule="evenodd"/></svg>