<svg xmlns="http://www.w3.org/2000/svg" xmlns:xlink="http://www.w3.org/1999/xlink" width="300" zoomAndPan="magnify" viewBox="0 0 224.87999 233.04" height="300" preserveAspectRatio="xMidYMid meet" version="1.0"><defs><clipPath id="4bcdc33f22"><path d="M 14.882812 80.535156 L 209.832031 80.535156 L 209.832031 143.277344 L 14.882812 143.277344 Z M 14.882812 80.535156 " clip-rule="nonzero"/></clipPath></defs><g clip-path="url(#4bcdc33f22)"><path fill="#ffffff" d="M 204.761719 143.523438 L 20.085938 143.523438 C 17.21875 143.523438 14.894531 141.199219 14.894531 138.332031 L 14.894531 85.714844 C 14.894531 82.847656 17.21875 80.523438 20.085938 80.523438 L 204.757812 80.523438 C 207.625 80.523438 209.949219 82.847656 209.949219 85.714844 L 209.949219 138.332031 C 209.953125 141.199219 207.625 143.523438 204.761719 143.523438 Z M 204.761719 143.523438 " fill-opacity="1" fill-rule="nonzero"/></g><path fill="#2d4186" d="M 24.546875 140.359375 C 20.96875 140.359375 18.058594 137.453125 18.058594 133.871094 L 18.058594 90.175781 C 18.058594 86.597656 20.964844 83.6875 24.546875 83.6875 L 200.296875 83.6875 C 203.871094 83.6875 206.78125 86.59375 206.78125 90.175781 L 206.78125 133.871094 C 206.78125 137.449219 203.875 140.359375 200.296875 140.359375 Z M 24.546875 140.359375 " fill-opacity="1" fill-rule="nonzero"/><path fill="#ffffff" d="M 175.191406 124.484375 L 28.914062 124.484375 L 28.914062 99.5625 L 175.191406 99.5625 Z M 175.191406 124.484375 " fill-opacity="1" fill-rule="nonzero"/><path fill="#ffffff" d="M 197.464844 112.023438 L 167.273438 134.441406 C 165.625 135.664062 163.28125 134.488281 163.28125 132.429688 L 163.28125 91.621094 C 163.28125 89.5625 165.625 88.386719 167.273438 89.609375 Z M 197.464844 112.023438 " fill-opacity="1" fill-rule="nonzero"/><path fill="#2d4186" d="M 65.277344 112.675781 C 65.277344 114.191406 65.007812 115.519531 64.472656 116.664062 C 63.9375 117.804688 63.167969 118.6875 62.171875 119.304688 C 61.171875 119.925781 60.03125 120.238281 58.738281 120.238281 C 57.464844 120.238281 56.324219 119.929688 55.324219 119.316406 C 54.320312 118.703125 53.546875 117.828125 52.996094 116.6875 C 52.445312 115.550781 52.167969 114.242188 52.160156 112.757812 L 52.160156 112 C 52.160156 110.484375 52.4375 109.148438 52.984375 107.996094 C 53.53125 106.84375 54.300781 105.960938 55.300781 105.339844 C 56.296875 104.722656 57.4375 104.417969 58.722656 104.417969 C 60.003906 104.417969 61.144531 104.722656 62.144531 105.339844 C 63.140625 105.960938 63.914062 106.84375 64.460938 107.996094 C 65.007812 109.148438 65.277344 110.480469 65.277344 111.988281 Z M 62.0625 111.976562 C 62.0625 110.367188 61.769531 109.136719 61.191406 108.300781 C 60.613281 107.460938 59.789062 107.039062 58.71875 107.039062 C 57.652344 107.039062 56.832031 107.453125 56.253906 108.28125 C 55.675781 109.109375 55.382812 110.324219 55.375 111.925781 L 55.375 112.675781 C 55.375 114.25 55.664062 115.46875 56.246094 116.335938 C 56.824219 117.203125 57.652344 117.636719 58.742188 117.636719 C 59.808594 117.636719 60.625 117.21875 61.195312 116.386719 C 61.765625 115.550781 62.058594 114.332031 62.0625 112.734375 Z M 62.0625 111.976562 " fill-opacity="1" fill-rule="nonzero"/><path fill="#2d4186" d="M 80.097656 120.027344 L 76.925781 120.027344 L 70.75 109.898438 L 70.75 120.027344 L 67.578125 120.027344 L 67.578125 104.628906 L 70.75 104.628906 L 76.9375 114.78125 L 76.9375 104.628906 L 80.097656 104.628906 Z M 80.097656 120.027344 " fill-opacity="1" fill-rule="nonzero"/><path fill="#2d4186" d="M 92.132812 113.355469 L 86.042969 113.355469 L 86.042969 117.476562 L 93.1875 117.476562 L 93.1875 120.023438 L 82.871094 120.023438 L 82.871094 104.628906 L 93.167969 104.628906 L 93.167969 107.199219 L 86.042969 107.199219 L 86.042969 110.871094 L 92.132812 110.871094 Z M 92.132812 113.355469 " fill-opacity="1" fill-rule="nonzero"/><path fill="#2d4186" d="M 112.433594 115.585938 L 114.507812 104.628906 L 117.667969 104.628906 L 114.253906 120.023438 L 111.058594 120.023438 L 108.554688 109.726562 L 106.046875 120.023438 L 102.855469 120.023438 L 99.4375 104.628906 L 102.601562 104.628906 L 104.683594 115.5625 L 107.222656 104.628906 L 109.910156 104.628906 Z M 112.433594 115.585938 " fill-opacity="1" fill-rule="nonzero"/><path fill="#2d4186" d="M 127.617188 116.851562 L 122.054688 116.851562 L 120.996094 120.023438 L 117.625 120.023438 L 123.355469 104.628906 L 126.292969 104.628906 L 132.054688 120.023438 L 128.683594 120.023438 Z M 122.914062 114.285156 L 126.761719 114.285156 L 124.824219 108.523438 Z M 122.914062 114.285156 " fill-opacity="1" fill-rule="nonzero"/><path fill="#2d4186" d="M 137.21875 111.566406 L 140.421875 104.628906 L 143.890625 104.628906 L 138.835938 114.441406 L 138.835938 120.023438 L 135.613281 120.023438 L 135.613281 114.441406 L 130.558594 104.628906 L 134.035156 104.628906 Z M 137.21875 111.566406 " fill-opacity="1" fill-rule="nonzero"/></svg>