<svg xmlns="http://www.w3.org/2000/svg" xmlns:xlink="http://www.w3.org/1999/xlink" width="300" zoomAndPan="magnify" viewBox="0 0 224.87999 233.04" height="300" preserveAspectRatio="xMidYMid meet" version="1.0"><defs><clipPath id="313618848c"><path d="M 19.773438 19.371094 L 205.007812 19.371094 L 205.007812 204.605469 L 19.773438 204.605469 Z M 19.773438 19.371094 " clip-rule="nonzero"/></clipPath></defs><path fill="#ffffff" d="M 36.9375 203.914062 L 187.933594 203.914062 C 196.753906 203.914062 204.316406 196.636719 204.316406 187.53125 L 204.316406 36.535156 C 204.316406 27.433594 196.753906 20.15625 187.933594 20.15625 L 36.9375 20.15625 C 28.121094 20.15625 20.558594 27.433594 20.558594 36.535156 L 20.558594 187.53125 C 20.558594 196.636719 28.121094 203.914062 36.9375 203.914062 " fill-opacity="1" fill-rule="nonzero"/><g clip-path="url(#313618848c)"><path stroke-linecap="butt" transform="matrix(0.0525015, 0, 0, -0.0525015, 19.771994, 204.700748)" fill="none" stroke-linejoin="bevel" d="M 326.952683 14.984058 L 3202.986683 14.984058 C 3370.987842 14.984058 3515.03135 153.596174 3515.03135 327.028725 L 3515.03135 3203.062725 C 3515.03135 3376.420873 3370.987842 3515.032989 3202.986683 3515.032989 L 326.952683 3515.032989 C 159.025927 3515.032989 14.982419 3376.420873 14.982419 3203.062725 L 14.982419 327.028725 C 14.982419 153.596174 159.025927 14.984058 326.952683 14.984058 Z M 326.952683 14.984058 " stroke="#000000" stroke-width="30" stroke-opacity="1" stroke-miterlimit="22.926001"/></g><path fill="#333366" d="M 37.003906 198.878906 L 188.5 198.878906 L 189.054688 198.835938 L 189.609375 198.769531 L 190.152344 198.667969 L 190.691406 198.542969 L 191.222656 198.390625 L 191.742188 198.210938 L 192.253906 198.011719 L 192.753906 197.785156 L 193.246094 197.535156 L 193.722656 197.261719 L 194.1875 196.964844 L 194.636719 196.648438 L 195.070312 196.308594 L 195.492188 195.953125 L 195.890625 195.574219 L 196.277344 195.175781 L 196.640625 194.761719 L 196.984375 194.332031 L 197.308594 193.882812 L 197.609375 193.421875 L 197.886719 192.949219 L 198.140625 192.460938 L 198.375 191.957031 L 198.578125 191.445312 L 198.761719 190.917969 L 198.917969 190.382812 L 199.046875 189.839844 L 199.152344 189.28125 L 199.222656 188.714844 L 199.269531 188.140625 L 199.304688 187.484375 L 199.304688 36.621094 L 199.269531 35.96875 L 199.222656 35.390625 L 199.152344 34.824219 L 199.046875 34.269531 L 198.917969 33.722656 L 198.761719 33.1875 L 198.578125 32.660156 L 198.375 32.148438 L 198.140625 31.648438 L 197.886719 31.160156 L 197.609375 30.683594 L 197.308594 30.222656 L 196.984375 29.773438 L 196.640625 29.34375 L 196.277344 28.929688 L 195.890625 28.535156 L 195.492188 28.15625 L 195.070312 27.796875 L 194.636719 27.453125 L 194.1875 27.140625 L 193.722656 26.839844 L 193.246094 26.570312 L 192.753906 26.316406 L 192.253906 26.09375 L 191.742188 25.890625 L 191.222656 25.710938 L 190.691406 25.558594 L 190.152344 25.433594 L 189.609375 25.335938 L 189.054688 25.261719 L 188.5 25.21875 L 36.375 25.21875 L 35.816406 25.261719 L 35.265625 25.335938 L 34.71875 25.433594 L 34.179688 25.558594 L 33.652344 25.710938 L 33.132812 25.890625 L 32.621094 26.09375 L 32.121094 26.316406 L 31.628906 26.570312 L 31.152344 26.839844 L 30.6875 27.140625 L 30.238281 27.453125 L 29.800781 27.796875 L 29.382812 28.15625 L 28.980469 28.535156 L 28.597656 28.929688 L 28.234375 29.34375 L 27.890625 29.773438 L 27.566406 30.222656 L 27.269531 30.683594 L 26.988281 31.160156 L 26.734375 31.648438 L 26.5 32.148438 L 26.296875 32.660156 L 26.117188 33.1875 L 25.960938 33.722656 L 25.832031 34.269531 L 25.726562 34.824219 L 25.652344 35.390625 L 25.609375 35.964844 L 25.570312 36.621094 L 25.570312 187.484375 L 25.609375 188.140625 L 25.652344 188.714844 L 25.726562 189.28125 L 25.832031 189.839844 L 25.960938 190.382812 L 26.117188 190.917969 L 26.296875 191.445312 L 26.5 191.957031 L 26.734375 192.457031 L 26.988281 192.949219 L 27.269531 193.421875 L 27.566406 193.882812 L 27.890625 194.332031 L 28.234375 194.761719 L 28.597656 195.175781 L 28.980469 195.574219 L 29.382812 195.949219 L 29.800781 196.308594 L 30.238281 196.648438 L 30.6875 196.964844 L 31.152344 197.261719 L 31.628906 197.535156 L 32.121094 197.785156 L 32.621094 198.011719 L 33.132812 198.210938 L 33.652344 198.390625 L 34.179688 198.542969 L 34.71875 198.667969 L 35.265625 198.769531 L 35.816406 198.835938 L 36.375 198.878906 L 37.003906 198.878906 " fill-opacity="1" fill-rule="nonzero"/><path fill="#ffffff" d="M 123.011719 66.003906 L 96.945312 66.003906 L 96.945312 111.628906 L 123.011719 111.628906 C 135.613281 111.628906 145.824219 101.414062 145.824219 88.816406 C 145.824219 76.21875 135.613281 66.003906 123.011719 66.003906 M 96.945312 182.015625 L 73.484375 182.015625 L 73.484375 45.148438 L 124.316406 45.148438 C 148.433594 45.148438 167.984375 64.699219 167.984375 88.816406 C 167.984375 112.933594 148.433594 132.484375 124.316406 132.484375 L 96.945312 132.484375 L 96.945312 182.015625 " fill-opacity="1" fill-rule="nonzero"/></svg>