<svg xmlns="http://www.w3.org/2000/svg" xmlns:xlink="http://www.w3.org/1999/xlink" width="300" zoomAndPan="magnify" viewBox="0 0 224.87999 233.04" height="300" preserveAspectRatio="xMidYMid meet" version="1.0"><defs><clipPath id="1c913186f8"><path d="M 21.523438 20.96875 L 203.027344 20.96875 L 203.027344 203.21875 L 21.523438 203.21875 Z M 21.523438 20.96875 " clip-rule="nonzero"/></clipPath></defs><path fill="#ffffff" d="M 194.664062 202.359375 C 199.03125 202.359375 202.601562 198.785156 202.601562 194.421875 L 202.601562 29.652344 C 202.601562 25.285156 199.03125 21.710938 194.664062 21.710938 L 30.210938 21.710938 C 25.84375 21.710938 22.269531 25.285156 22.269531 29.652344 L 22.269531 194.421875 C 22.269531 198.785156 25.84375 202.359375 30.210938 202.359375 Z M 194.664062 202.359375 " fill-opacity="1" fill-rule="nonzero"/><g clip-path="url(#1c913186f8)"><path stroke-linecap="butt" transform="matrix(1.183586, 0, 0, 1.183586, 3060.172484, -733.339123)" fill="none" stroke-linejoin="miter" d="M -2421.039139 790.562215 C -2417.349347 790.562215 -2414.332826 787.542394 -2414.332826 783.855902 L -2414.332826 644.643788 C -2414.332826 640.953995 -2417.349347 637.934174 -2421.039139 637.934174 L -2559.983924 637.934174 C -2563.673717 637.934174 -2566.693538 640.953995 -2566.693538 644.643788 L -2566.693538 783.855902 C -2566.693538 787.542394 -2563.673717 790.562215 -2559.983924 790.562215 Z M -2421.039139 790.562215 " stroke="#000000" stroke-width="1.251" stroke-opacity="1" stroke-miterlimit="2.613"/></g><path fill="#2d4186" d="M 193.667969 197.398438 C 195.851562 197.398438 197.640625 195.609375 197.640625 193.425781 L 197.640625 30.644531 C 197.640625 28.460938 195.851562 26.671875 193.667969 26.671875 L 31.199219 26.671875 C 29.015625 26.671875 27.230469 28.460938 27.230469 30.644531 L 27.230469 193.425781 C 27.230469 195.609375 29.015625 197.398438 31.199219 197.398438 Z M 193.667969 197.398438 " fill-opacity="1" fill-rule="nonzero"/><path fill="#ffffff" d="M 156.871094 87.488281 L 169.117188 89.035156 C 170.019531 89.164062 170.921875 88.519531 171.050781 87.488281 C 171.050781 87.230469 171.050781 86.714844 170.664062 86.457031 L 145.402344 48.300781 L 120.007812 86.457031 C 119.363281 87.230469 119.621094 88.132812 120.265625 88.777344 C 120.78125 89.035156 121.167969 89.164062 121.554688 89.035156 L 133.929688 87.488281 L 133.929688 173.078125 L 156.871094 173.078125 " fill-opacity="1" fill-rule="evenodd"/><path fill="#753268" d="M 65.226562 87.488281 L 65.226562 133.503906 L 52.722656 131.828125 C 51.820312 131.828125 50.917969 132.472656 50.789062 133.503906 C 50.789062 133.761719 50.917969 134.277344 51.175781 134.535156 L 76.441406 172.691406 L 102.089844 134.535156 C 102.476562 133.761719 102.347656 132.601562 101.574219 132.214844 C 101.1875 131.957031 100.800781 131.828125 100.414062 131.828125 L 87.910156 133.503906 L 87.910156 87.488281 " fill-opacity="1" fill-rule="evenodd"/></svg>