<svg xmlns="http://www.w3.org/2000/svg" xmlns:xlink="http://www.w3.org/1999/xlink" width="300" zoomAndPan="magnify" viewBox="0 0 224.87999 233.04" height="300" preserveAspectRatio="xMidYMid meet" version="1.0"><defs><clipPath id="9f6df58e28"><path d="M 16.648438 16.367188 L 207.859375 16.367188 L 207.859375 207.578125 L 16.648438 207.578125 Z M 16.648438 16.367188 " clip-rule="nonzero"/></clipPath></defs><g clip-path="url(#9f6df58e28)"><path fill="#2d4186" d="M 108.796875 16.496094 C 56.1875 18.695312 19.730469 60.625 16.835938 106.71875 C 15.503906 128.023438 21.335938 150.21875 36.0625 169.792969 C 77.789062 225.25 163.476562 218.613281 196.558594 157.796875 C 231.90625 92.820312 182.445312 13.421875 108.800781 16.496094 Z M 108.796875 16.496094 " fill-opacity="1" fill-rule="nonzero"/></g><path fill="#ffffff" d="M 106.023438 19.828125 C 180.117188 15.394531 229.710938 94.136719 192.296875 158.804688 C 155.863281 221.769531 63.101562 218.863281 30.03125 154.1875 C 0.00390625 95.464844 40.34375 23.753906 106.023438 19.828125 Z M 108.796875 25.097656 C 43.75 28 4.3125 98.695312 36.960938 155.578125 C 69.222656 211.785156 150.160156 213.78125 185.53125 159.527344 C 224.050781 100.453125 178.9375 21.96875 108.796875 25.097656 Z M 108.796875 25.097656 " fill-opacity="1" fill-rule="nonzero"/><path fill="#ffffff" d="M 115.796875 70.296875 C 109.109375 69.648438 102.855469 70.363281 96.675781 73.121094 C 85.316406 78.195312 77.394531 89.089844 76.253906 101.535156 L 59.253906 99.953125 C 60.808594 69.746094 91.914062 46.933594 121.332031 53.691406 C 121.710938 53.351562 123.105469 45.273438 123.917969 43.824219 C 124.414062 42.941406 125.707031 42.761719 126.605469 43.078125 C 128.148438 43.621094 141.65625 65.746094 144.292969 68.488281 C 144.710938 69.070312 144.796875 69.726562 144.597656 70.414062 C 144.140625 71.964844 118.140625 81.527344 114.863281 83.246094 C 113.824219 82.917969 113.011719 82.367188 113.003906 81.183594 C 112.996094 79.425781 116.710938 71.230469 115.800781 70.296875 Z M 115.796875 70.296875 " fill-opacity="1" fill-rule="nonzero"/><path fill="#ffffff" d="M 94.378906 125.714844 C 94.710938 126.257812 94.511719 127.996094 93.875 128.441406 L 84.5625 133.566406 C 84.402344 134.160156 84.71875 134.21875 84.949219 134.554688 C 86.96875 137.441406 91.03125 140.613281 94.082031 142.425781 C 103.617188 148.082031 115.570312 148.820312 125.839844 144.660156 L 133.574219 160.824219 C 110.882812 169.972656 84.203125 163.273438 69.6875 143.472656 C 68.972656 143.347656 62.457031 148.59375 60.710938 149.082031 C 58.042969 149.832031 58.355469 147.144531 58.472656 145.226562 C 58.714844 141.363281 59.886719 136.867188 60.386719 132.910156 C 61 128.085938 61.25 122.691406 62.066406 117.980469 C 62.5 115.453125 63.171875 115.472656 65.605469 115.949219 C 68.832031 117.691406 93.582031 124.421875 94.378906 125.71875 Z M 94.378906 125.714844 " fill-opacity="1" fill-rule="nonzero"/><path fill="#ffffff" d="M 172.226562 139.78125 L 143.085938 150.800781 C 142.207031 151.039062 141.070312 150.820312 140.890625 149.789062 L 135.25 118.421875 C 135.582031 116.910156 136.644531 116.667969 138.039062 117.046875 L 147.1875 122.464844 C 153.019531 111.203125 150.105469 97.101562 142.722656 87.160156 L 155.980469 76.261719 C 156.695312 76.128906 158.609375 79.140625 159.054688 79.820312 C 165.6875 89.941406 169.035156 103.480469 167.539062 115.519531 C 166.835938 121.171875 164.941406 126.46875 162.875 131.71875 C 164.351562 133.425781 172.558594 136.59375 172.707031 138.492188 C 172.734375 138.84375 172.480469 139.519531 172.226562 139.78125 Z M 172.226562 139.78125 " fill-opacity="1" fill-rule="nonzero"/></svg>