<svg xmlns="http://www.w3.org/2000/svg" xmlns:xlink="http://www.w3.org/1999/xlink" width="300" zoomAndPan="magnify" viewBox="0 0 224.87999 233.04" height="300" preserveAspectRatio="xMidYMid meet" version="1.0"><defs><clipPath id="154dc3ccc9"><path d="M 43.292969 8.628906 L 181.476562 8.628906 L 181.476562 215.527344 L 43.292969 215.527344 Z M 43.292969 8.628906 " clip-rule="nonzero"/></clipPath></defs><path fill="#ffffff" d="M 55.132812 9.25 L 169.757812 9.25 C 170.488281 9.25 171.210938 9.324219 171.929688 9.464844 C 172.644531 9.609375 173.34375 9.820312 174.015625 10.097656 C 174.691406 10.378906 175.332031 10.722656 175.941406 11.128906 C 176.546875 11.535156 177.109375 11.996094 177.628906 12.511719 C 178.144531 13.027344 178.605469 13.589844 179.011719 14.199219 C 179.417969 14.804688 179.761719 15.445312 180.039062 16.121094 C 180.320312 16.796875 180.53125 17.492188 180.671875 18.210938 C 180.816406 18.925781 180.886719 19.648438 180.886719 20.378906 L 180.886719 203.714844 C 180.886719 204.445312 180.816406 205.167969 180.671875 205.886719 C 180.53125 206.601562 180.320312 207.296875 180.039062 207.972656 C 179.761719 208.648438 179.417969 209.289062 179.011719 209.898438 C 178.605469 210.503906 178.144531 211.066406 177.628906 211.585938 C 177.109375 212.101562 176.546875 212.5625 175.941406 212.96875 C 175.332031 213.375 174.691406 213.71875 174.015625 213.996094 C 173.34375 214.277344 172.644531 214.488281 171.929688 214.628906 C 171.210938 214.773438 170.488281 214.84375 169.757812 214.84375 L 55.132812 214.84375 C 54.402344 214.84375 53.679688 214.773438 52.960938 214.628906 C 52.246094 214.488281 51.550781 214.277344 50.875 213.996094 C 50.199219 213.71875 49.558594 213.375 48.949219 212.96875 C 48.34375 212.5625 47.78125 212.101562 47.265625 211.585938 C 46.746094 211.066406 46.285156 210.503906 45.878906 209.898438 C 45.472656 209.289062 45.132812 208.648438 44.851562 207.972656 C 44.570312 207.296875 44.359375 206.601562 44.21875 205.886719 C 44.074219 205.167969 44.003906 204.445312 44.003906 203.714844 L 44.003906 20.378906 C 44.003906 19.648438 44.074219 18.925781 44.21875 18.210938 C 44.359375 17.492188 44.570312 16.796875 44.851562 16.121094 C 45.132812 15.445312 45.472656 14.804688 45.878906 14.199219 C 46.285156 13.589844 46.746094 13.027344 47.265625 12.511719 C 47.78125 11.996094 48.34375 11.535156 48.949219 11.128906 C 49.558594 10.722656 50.199219 10.378906 50.875 10.097656 C 51.550781 9.820312 52.246094 9.609375 52.960938 9.464844 C 53.679688 9.324219 54.402344 9.25 55.132812 9.25 " fill-opacity="1" fill-rule="evenodd"/><g clip-path="url(#154dc3ccc9)"><path stroke-linecap="butt" transform="matrix(0.247299, 0, 0, 0.247299, 10.005771, -19.593104)" fill="none" stroke-linejoin="miter" d="M 182.479831 116.632611 L 645.987963 116.632611 C 648.941754 116.632611 651.863952 116.932729 654.770356 117.501373 C 657.660963 118.085813 660.488388 118.938779 663.205243 120.060271 C 665.937894 121.19756 668.528384 122.587579 670.992509 124.230328 C 673.440837 125.873078 675.715414 127.736967 677.816238 129.821995 C 679.901266 131.907024 681.765155 134.1816 683.407905 136.645725 C 685.050655 139.094053 686.440674 141.684543 687.562166 144.417194 C 688.699454 147.149845 689.55242 149.961474 690.121065 152.867877 C 690.705504 155.758485 690.989826 158.680684 690.989826 161.634474 L 690.989826 902.988437 C 690.989826 905.942227 690.705504 908.864426 690.121065 911.770829 C 689.55242 914.661436 688.699454 917.473066 687.562166 920.205717 C 686.440674 922.938367 685.050655 925.528857 683.407905 927.992982 C 681.765155 930.441311 679.901266 932.715887 677.816238 934.816711 C 675.715414 936.901739 673.440837 938.765628 670.992509 940.408378 C 668.528384 942.051128 665.937894 943.441147 663.205243 944.562639 C 660.488388 945.699927 657.660963 946.552894 654.770356 947.121538 C 651.863952 947.705978 648.941754 947.9903 645.987963 947.9903 L 182.479831 947.9903 C 179.526041 947.9903 176.603842 947.705978 173.697439 947.121538 C 170.806831 946.552894 167.995202 945.699927 165.262551 944.562639 C 162.5299 943.441147 159.93941 942.051128 157.475286 940.408378 C 155.026957 938.765628 152.752381 936.901739 150.667352 934.816711 C 148.566528 932.715887 146.702639 930.441311 145.05989 927.992982 C 143.41714 925.528857 142.042917 922.938367 140.905628 920.205717 C 139.76834 917.473066 138.915374 914.661436 138.34673 911.770829 C 137.76229 908.864426 137.477968 905.942227 137.477968 902.988437 L 137.477968 161.634474 C 137.477968 158.680684 137.76229 155.758485 138.34673 152.867877 C 138.915374 149.961474 139.76834 147.149845 140.905628 144.417194 C 142.042917 141.684543 143.41714 139.094053 145.05989 136.645725 C 146.702639 134.1816 148.566528 131.907024 150.667352 129.821995 C 152.752381 127.736967 155.026957 125.873078 157.475286 124.230328 C 159.93941 122.587579 162.5299 121.19756 165.262551 120.060271 C 167.995202 118.938779 170.806831 118.085813 173.697439 117.501373 C 176.603842 116.932729 179.526041 116.632611 182.479831 116.632611 " stroke="#333366" stroke-width="5" stroke-opacity="1" stroke-miterlimit="4"/></g><path stroke-linecap="butt" transform="matrix(0.247299, 0, 0, 0.247299, 10.005771, -19.593104)" fill-opacity="1" fill="#333366" fill-rule="evenodd" stroke-linejoin="miter" d="M 183.86985 141.115899 L 644.234644 141.115899 C 645.751028 141.115899 647.251617 141.273856 648.720614 141.558178 C 650.205407 141.858296 651.642813 142.300574 653.048628 142.869218 C 654.438647 143.453658 655.765483 144.164463 657.013341 145.001634 C 658.276994 145.838804 659.430078 146.786545 660.504184 147.86065 C 661.578289 148.91896 662.52603 150.08784 663.3632 151.335697 C 664.200371 152.599351 664.911176 153.926187 665.495615 155.316206 C 666.06426 156.706225 666.506538 158.159427 666.79086 159.628424 C 667.090978 161.113217 667.233139 162.613806 667.233139 164.114394 L 667.233139 901.598418 C 667.233139 903.114802 667.090978 904.599595 666.79086 906.084388 C 666.506538 907.569181 666.06426 909.006587 665.495615 910.396606 C 664.911176 911.80242 664.200371 913.129257 663.3632 914.377114 C 662.52603 915.640768 661.578289 916.793852 660.504184 917.867957 C 659.430078 918.926267 658.276994 919.889803 657.013341 920.726974 C 655.765483 921.564144 654.438647 922.274949 653.048628 922.843593 C 651.642813 923.428033 650.205407 923.870312 648.720614 924.154634 C 647.251617 924.454752 645.751028 924.596913 644.234644 924.596913 L 183.86985 924.596913 C 182.353466 924.596913 180.868673 924.454752 179.38388 924.154634 C 177.899087 923.870312 176.461681 923.428033 175.071662 922.843593 C 173.665847 922.274949 172.354807 921.564144 171.091153 920.726974 C 169.843295 919.889803 168.674416 918.926267 167.60031 917.867957 C 166.542 916.793852 165.578465 915.640768 164.741294 914.377114 C 163.904124 913.129257 163.193318 911.80242 162.624674 910.396606 C 162.040235 909.006587 161.613751 907.569181 161.313634 906.084388 C 161.013516 904.599595 160.871355 903.114802 160.871355 901.598418 L 160.871355 164.114394 C 160.871355 162.613806 161.013516 161.113217 161.313634 159.628424 C 161.613751 158.159427 162.040235 156.706225 162.624674 155.316206 C 163.193318 153.926187 163.904124 152.599351 164.741294 151.335697 C 165.578465 150.08784 166.542 148.91896 167.60031 147.86065 C 168.674416 146.786545 169.843295 145.838804 171.091153 145.001634 C 172.354807 144.164463 173.665847 143.453658 175.071662 142.869218 C 176.461681 142.300574 177.899087 141.858296 179.38388 141.558178 C 180.868673 141.273856 182.353466 141.115899 183.86985 141.115899 " stroke="#333366" stroke-width="3.909" stroke-opacity="1" stroke-miterlimit="4"/><path fill="#ffffff" d="M 98.175781 198.648438 L 98.175781 82.84375 L 69.289062 112.054688 L 69.289062 68.976562 L 112.390625 25.570312 L 155.492188 68.976562 L 155.492188 112.054688 L 126.605469 82.84375 L 126.605469 198.648438 Z M 98.175781 198.648438 " fill-opacity="1" fill-rule="evenodd"/></svg>