<svg xmlns="http://www.w3.org/2000/svg" xmlns:xlink="http://www.w3.org/1999/xlink" width="300" zoomAndPan="magnify" viewBox="0 0 224.87999 225" height="300" preserveAspectRatio="xMidYMid meet" version="1.0"><defs><clipPath id="623d41b06f"><path d="M 0 0.0585938 L 224.761719 0.0585938 L 224.761719 224.9375 L 0 224.9375 Z M 0 0.0585938 " clip-rule="nonzero"/></clipPath><clipPath id="3216c0fb4c"><path d="M 8 15 L 216 15 L 216 197.636719 L 8 197.636719 Z M 8 15 " clip-rule="nonzero"/></clipPath><clipPath id="68237026b7"><path d="M 7.941406 15 L 216 15 L 216 197.636719 L 7.941406 197.636719 Z M 7.941406 15 " clip-rule="nonzero"/></clipPath></defs><g clip-path="url(#623d41b06f)"><path fill="#ffffff" d="M 0 0.0585938 L 224.878906 0.0585938 L 224.878906 224.941406 L 0 224.941406 Z M 0 0.0585938 " fill-opacity="1" fill-rule="nonzero"/><path fill="#000000" d="M 0 0.0585938 L 224.878906 0.0585938 L 224.878906 224.941406 L 0 224.941406 Z M 0 0.0585938 " fill-opacity="1" fill-rule="nonzero"/></g><g clip-path="url(#3216c0fb4c)"><path fill="#ffffff" d="M 103.441406 20.203125 L 9.441406 183.015625 C 8.589844 184.492188 8.136719 186.167969 8.136719 187.867188 C 8.136719 193.207031 12.492188 197.558594 17.839844 197.558594 L 205.839844 197.558594 C 207.539062 197.558594 209.21875 197.113281 210.683594 196.261719 C 215.3125 193.585938 216.902344 187.648438 214.234375 183.015625 L 120.230469 20.203125 C 119.382812 18.738281 118.15625 17.511719 116.683594 16.65625 C 112.058594 13.984375 106.117188 15.578125 103.441406 20.203125 " fill-opacity="1" fill-rule="nonzero"/></g><g clip-path="url(#68237026b7)"><path fill="#000000" d="M 111.835938 15.175781 C 108.429688 15.175781 105.109375 16.945312 103.285156 20.113281 L 9.28125 182.929688 C 8.414062 184.433594 7.960938 186.128906 7.960938 187.871094 C 7.960938 193.328125 12.382812 197.746094 17.835938 197.746094 L 205.84375 197.746094 C 207.570312 197.746094 209.273438 197.289062 210.773438 196.421875 C 213.953125 194.589844 215.71875 191.265625 215.710938 187.839844 C 215.710938 186.171875 215.285156 184.480469 214.394531 182.929688 L 120.382812 20.113281 C 119.519531 18.609375 118.269531 17.367188 116.773438 16.496094 C 115.21875 15.601562 113.523438 15.175781 111.839844 15.175781 M 17.835938 197.382812 C 12.59375 197.382812 8.328125 193.117188 8.328125 187.867188 C 8.328125 186.199219 8.769531 184.550781 9.597656 183.113281 L 103.601562 20.296875 C 105.292969 17.363281 108.453125 15.542969 111.839844 15.542969 C 113.503906 15.542969 115.148438 15.980469 116.597656 16.8125 C 118.035156 17.648438 119.242188 18.851562 120.074219 20.296875 L 214.078125 183.113281 C 216.703125 187.65625 215.132812 193.484375 210.601562 196.105469 C 209.15625 196.941406 207.503906 197.382812 205.84375 197.382812 Z M 17.835938 197.382812 " fill-opacity="1" fill-rule="nonzero"/></g><path fill="#713167" d="M 17.839844 194.042969 C 14.421875 194.042969 11.664062 191.269531 11.664062 187.867188 C 11.664062 186.78125 11.945312 185.722656 12.492188 184.777344 L 106.492188 21.964844 C 108.199219 19.015625 111.972656 18 114.925781 19.707031 C 115.859375 20.246094 116.640625 21.027344 117.1875 21.964844 L 211.179688 184.78125 C 212.890625 187.734375 211.875 191.507812 208.925781 193.214844 C 207.988281 193.757812 206.921875 194.042969 205.839844 194.042969 M 39.21875 175.519531 L 184.457031 175.519531 L 111.835938 49.742188 Z M 39.21875 175.519531 " fill-opacity="1" fill-rule="nonzero"/><path fill="#000000" d="M 66.164062 165.640625 L 66.164062 155.769531 L 68.628906 155.769531 C 72.519531 155.769531 76.171875 153.941406 78.507812 150.828125 L 80.355469 148.363281 C 84.449219 142.90625 92.183594 141.800781 97.640625 145.894531 C 98.578125 146.597656 99.40625 147.425781 100.109375 148.363281 L 101.960938 150.828125 C 106.050781 156.285156 113.789062 157.394531 119.246094 153.304688 C 120.179688 152.601562 121.011719 151.769531 121.714844 150.828125 L 123.445312 148.363281 C 127.539062 142.90625 135.269531 141.800781 140.722656 145.894531 C 141.667969 146.597656 142.492188 147.425781 143.199219 148.363281 L 145.171875 150.828125 C 147.503906 153.941406 151.15625 155.769531 155.046875 155.769531 L 157.511719 155.769531 L 157.511719 165.640625 " fill-opacity="1" fill-rule="nonzero"/></svg>