<svg xmlns="http://www.w3.org/2000/svg" xmlns:xlink="http://www.w3.org/1999/xlink" width="300" zoomAndPan="magnify" viewBox="0 0 224.87999 233.04" height="300" preserveAspectRatio="xMidYMid meet" version="1.0"><defs><clipPath id="1f140d1f56"><path d="M 53.828125 53.425781 L 171 53.425781 L 171 170.691406 L 53.828125 170.691406 Z M 53.828125 53.425781 " clip-rule="nonzero"/></clipPath><clipPath id="385537c53e"><path d="M 53.828125 53.425781 L 171.09375 53.425781 L 171.09375 170.691406 L 53.828125 170.691406 Z M 53.828125 53.425781 " clip-rule="nonzero"/></clipPath></defs><g clip-path="url(#0000001f56)"><path fill="#ffffff" d="M 64.335938 53.574219 L 160.535156 53.574219 C 166.234375 53.574219 170.894531 58.238281 170.894531 63.9375 L 170.894531 160.136719 C 170.894531 165.832031 166.234375 170.496094 160.535156 170.496094 L 64.335938 170.496094 C 58.636719 170.496094 53.976562 165.832031 53.976562 160.136719 L 53.976562 63.9375 C 53.976562 58.238281 58.636719 53.574219 64.335938 53.574219 " fill-opacity="1" fill-rule="nonzero"/></g><g clip-path="url(#385537c53e)"><path stroke-linecap="butt" transform="matrix(0.0474896, 0, 0, -0.0474896, 53.827634, 170.646337)" fill="none" stroke-linejoin="miter" d="M 221.27574 2465.214235 L 2246.964581 2465.214235 C 2366.974328 2465.214235 2465.104298 2367.002009 2465.104298 2246.992263 L 2465.104298 221.303422 C 2465.104298 101.37593 2366.974328 3.163705 2246.964581 3.163705 L 221.27574 3.163705 C 101.265994 3.163705 3.136023 101.37593 3.136023 221.303422 L 3.136023 2246.992263 C 3.136023 2367.002009 101.265994 2465.214235 221.27574 2465.214235 Z M 221.27574 2465.214235 " stroke="#000000" stroke-width="6.25" stroke-opacity="1" stroke-miterlimit="4"/></g><path fill="#2d4186" d="M 64.335938 56.539062 L 160.535156 56.539062 C 164.609375 56.539062 167.9375 59.867188 167.9375 63.9375 L 167.9375 160.136719 C 167.9375 164.207031 164.609375 167.539062 160.535156 167.539062 L 64.335938 167.539062 C 60.265625 167.539062 56.933594 164.207031 56.933594 160.136719 L 56.933594 63.9375 C 56.933594 59.867188 60.265625 56.539062 64.335938 56.539062 " fill-opacity="1" fill-rule="evenodd"/><path fill="#ffffff" d="M 78.597656 148.300781 L 96.582031 148.300781 L 96.582031 72.957031 L 96.605469 72.953125 C 96.605469 71.269531 98.007812 69.910156 99.691406 69.910156 C 99.703125 69.910156 99.699219 69.890625 99.707031 69.890625 L 126.773438 69.875 C 128.449219 69.875 129.835938 71.285156 129.855469 72.960938 L 129.855469 78.175781 L 137.175781 84.179688 C 138.535156 85.203125 139.421875 86.828125 139.507812 88.519531 C 139.503906 99.082031 139.507812 108.578125 139.507812 116.914062 C 139.507812 126.429688 145.15625 133.621094 145.15625 140.847656 C 145.15625 144.484375 142.171875 147.445312 138.5625 147.445312 C 135.515625 147.445312 132.675781 145.050781 131.859375 142.066406 C 130.574219 137.367188 131.265625 112.632812 131.210938 107.167969 L 129.835938 107.167969 L 129.835938 148.300781 L 146.296875 148.300781 L 146.296875 154.234375 L 78.597656 154.234375 L 78.597656 148.300781 " fill-opacity="1" fill-rule="evenodd"/><path fill="#2d4186" d="M 134.691406 105.089844 C 134.691406 103.710938 133.570312 102.585938 132.210938 102.582031 L 129.769531 102.484375 L 129.769531 82.800781 L 131.199219 83.90625 L 131.199219 91.75 L 136.011719 91.746094 C 136.082031 100.671875 136.15625 109.59375 136.226562 118.519531 C 136.242188 127.40625 141.34375 135.261719 141.492188 140.378906 C 141.542969 142.078125 140.101562 143.46875 138.402344 143.46875 C 137.535156 143.46875 136.371094 143.023438 135.640625 141.804688 C 133.570312 138.367188 134.726562 109.546875 134.691406 105.09375 " fill-opacity="1" fill-rule="evenodd"/><path fill="#2d4186" d="M 103.066406 74.144531 L 123.289062 74.144531 C 124.375 74.144531 125.265625 75.03125 125.265625 76.121094 L 125.265625 91.566406 C 125.265625 92.652344 124.375 93.542969 123.289062 93.542969 L 103.066406 93.542969 C 101.976562 93.542969 101.085938 92.652344 101.085938 91.566406 L 101.085938 76.121094 C 101.085938 75.03125 101.976562 74.144531 103.066406 74.144531 " fill-opacity="1" fill-rule="evenodd"/></svg>