<svg xmlns="http://www.w3.org/2000/svg" xmlns:xlink="http://www.w3.org/1999/xlink" width="300" zoomAndPan="magnify" viewBox="0 0 224.87999 233.04" height="300" preserveAspectRatio="xMidYMid meet" version="1.0"><defs><clipPath id="9712ec42e6"><path d="M 15.402344 15 L 202.132812 15 L 202.132812 201.730469 L 15.402344 201.730469 Z M 15.402344 15 " clip-rule="nonzero"/></clipPath></defs><path fill="#ffffff" d="M 17.015625 16.027344 L 200.441406 16.027344 C 200.769531 16.027344 201.027344 16.292969 201.027344 16.613281 L 201.027344 200.039062 C 201.027344 200.367188 200.761719 200.628906 200.441406 200.628906 L 17.015625 200.628906 C 16.6875 200.628906 16.425781 200.359375 16.425781 200.039062 L 16.425781 16.621094 C 16.425781 16.292969 16.695312 16.03125 17.015625 16.03125 Z M 17.015625 16.027344 " fill-opacity="1" fill-rule="nonzero"/><g clip-path="url(#9712ec42e6)"><path fill="#2d4186" d="M 200.003906 17.050781 L 200.003906 199.601562 L 17.453125 199.601562 L 17.453125 17.050781 L 200.003906 17.050781 M 200.441406 15 L 17.015625 15 C 16.125 15 15.402344 15.726562 15.402344 16.613281 L 15.402344 200.039062 C 15.402344 200.933594 16.125 201.652344 17.015625 201.652344 L 200.441406 201.652344 C 201.335938 201.652344 202.054688 200.929688 202.054688 200.039062 L 202.054688 16.613281 C 202.054688 15.71875 201.328125 15 200.441406 15 Z M 200.441406 15 " fill-opacity="1" fill-rule="nonzero"/></g><path fill="#2d4186" d="M 26.347656 24.332031 L 191.105469 24.332031 C 191.320312 24.332031 191.527344 24.375 191.726562 24.457031 C 191.921875 24.539062 192.097656 24.65625 192.25 24.804688 C 192.402344 24.957031 192.515625 25.132812 192.597656 25.328125 C 192.679688 25.527344 192.722656 25.734375 192.722656 25.949219 L 192.722656 190.707031 C 192.722656 190.921875 192.679688 191.125 192.597656 191.324219 C 192.515625 191.523438 192.402344 191.695312 192.25 191.847656 C 192.097656 192 191.921875 192.117188 191.726562 192.199219 C 191.527344 192.28125 191.320312 192.320312 191.105469 192.320312 L 26.347656 192.320312 C 26.136719 192.320312 25.929688 192.28125 25.730469 192.199219 C 25.535156 192.117188 25.359375 192 25.207031 191.847656 C 25.054688 191.695312 24.9375 191.523438 24.855469 191.324219 C 24.773438 191.125 24.734375 190.921875 24.734375 190.707031 L 24.734375 25.949219 C 24.734375 25.734375 24.773438 25.527344 24.855469 25.328125 C 24.9375 25.132812 25.054688 24.957031 25.207031 24.804688 C 25.359375 24.65625 25.535156 24.539062 25.730469 24.457031 C 25.929688 24.375 26.136719 24.332031 26.347656 24.332031 Z M 26.347656 24.332031 " fill-opacity="1" fill-rule="nonzero"/><path fill="#ffffff" d="M 152.40625 88.796875 L 135.773438 88.796875 C 135.773438 77.703125 126.042969 68.679688 114.089844 68.679688 C 102.136719 68.679688 92.40625 77.703125 92.40625 88.796875 L 75.773438 88.796875 C 75.773438 68.875 92.960938 52.667969 114.089844 52.667969 C 135.21875 52.667969 152.40625 68.875 152.40625 88.796875 Z M 152.40625 88.796875 " fill-opacity="1" fill-rule="nonzero"/><path fill="#ffffff" d="M 75.773438 88.796875 L 92.40625 88.796875 L 92.40625 154.914062 L 75.773438 154.914062 Z M 75.773438 88.796875 " fill-opacity="1" fill-rule="nonzero"/><path fill="#ffffff" d="M 135.773438 88.796875 L 152.40625 88.796875 L 152.40625 163.046875 L 135.773438 163.046875 Z M 135.773438 88.796875 " fill-opacity="1" fill-rule="nonzero"/><path fill="#ffffff" d="M 112.925781 112.675781 L 84.09375 140.429688 L 84.09375 140.421875 L 55.273438 112.675781 L 55.257812 112.6875 L 55.257812 135.296875 L 84.09375 163.046875 L 84.09375 163.035156 L 84.097656 163.046875 L 112.925781 135.304688 Z M 112.925781 112.675781 " fill-opacity="1" fill-rule="nonzero"/></svg>