<svg xmlns="http://www.w3.org/2000/svg" xmlns:xlink="http://www.w3.org/1999/xlink" width="300" zoomAndPan="magnify" viewBox="0 0 224.87999 233.04" height="300" preserveAspectRatio="xMidYMid meet" version="1.0"><defs><clipPath id="85816a05b9"><path d="M 6.375 11.539062 L 218.5 11.539062 L 218.5 212.460938 L 6.375 212.460938 Z M 6.375 11.539062 " clip-rule="nonzero"/></clipPath></defs><g clip-path="url(#85816a05b9)"><path fill="#ffffff" d="M 218.242188 112.03125 C 218.242188 113.675781 218.199219 115.320312 218.117188 116.960938 C 218.03125 118.605469 217.902344 120.242188 217.734375 121.878906 C 217.5625 123.515625 217.351562 125.148438 217.097656 126.777344 C 216.84375 128.402344 216.546875 130.023438 216.210938 131.636719 C 215.871094 133.25 215.492188 134.851562 215.070312 136.449219 C 214.652344 138.042969 214.191406 139.628906 213.6875 141.203125 C 213.183594 142.777344 212.640625 144.335938 212.058594 145.886719 C 211.472656 147.433594 210.851562 148.96875 210.1875 150.488281 C 209.527344 152.007812 208.824219 153.511719 208.085938 154.996094 C 207.34375 156.484375 206.566406 157.953125 205.75 159.402344 C 204.933594 160.851562 204.078125 162.285156 203.1875 163.695312 C 202.300781 165.105469 201.371094 166.492188 200.410156 167.863281 C 199.449219 169.230469 198.453125 170.574219 197.421875 171.894531 C 196.386719 173.214844 195.324219 174.511719 194.226562 175.78125 C 193.125 177.054688 191.996094 178.300781 190.832031 179.515625 C 189.667969 180.734375 188.476562 181.925781 187.25 183.089844 C 186.027344 184.253906 184.773438 185.386719 183.488281 186.492188 C 182.207031 187.59375 180.894531 188.667969 179.558594 189.710938 C 178.21875 190.757812 176.855469 191.769531 175.464844 192.746094 C 174.070312 193.726562 172.65625 194.671875 171.21875 195.585938 C 169.777344 196.5 168.316406 197.378906 166.828125 198.226562 C 165.34375 199.070312 163.835938 199.882812 162.308594 200.65625 C 160.78125 201.433594 159.238281 202.171875 157.671875 202.875 C 156.105469 203.578125 154.523438 204.246094 152.921875 204.875 C 151.324219 205.503906 149.707031 206.09375 148.078125 206.648438 C 146.449219 207.203125 144.804688 207.71875 143.148438 208.195312 C 141.488281 208.675781 139.820312 209.113281 138.140625 209.511719 C 136.460938 209.910156 134.773438 210.273438 133.074219 210.59375 C 131.375 210.914062 129.667969 211.195312 127.957031 211.4375 C 126.242188 211.675781 124.527344 211.878906 122.800781 212.039062 C 121.078125 212.199219 119.351562 212.320312 117.621094 212.402344 C 115.894531 212.484375 114.164062 212.523438 112.429688 212.523438 C 110.699219 212.523438 108.96875 212.484375 107.238281 212.402344 C 105.507812 212.320312 103.78125 212.199219 102.058594 212.039062 C 100.335938 211.878906 98.617188 211.675781 96.90625 211.4375 C 95.191406 211.195312 93.484375 210.914062 91.789062 210.59375 C 90.089844 210.273438 88.398438 209.910156 86.71875 209.511719 C 85.039062 209.113281 83.371094 208.671875 81.714844 208.195312 C 80.058594 207.71875 78.414062 207.203125 76.785156 206.648438 C 75.152344 206.09375 73.539062 205.503906 71.9375 204.875 C 70.339844 204.246094 68.753906 203.578125 67.191406 202.875 C 65.625 202.171875 64.078125 201.433594 62.550781 200.65625 C 61.023438 199.882812 59.519531 199.070312 58.03125 198.226562 C 56.546875 197.378906 55.085938 196.5 53.644531 195.585938 C 52.203125 194.671875 50.789062 193.726562 49.398438 192.746094 C 48.007812 191.769531 46.644531 190.757812 45.304688 189.710938 C 43.964844 188.667969 42.65625 187.59375 41.371094 186.492188 C 40.089844 185.386719 38.835938 184.253906 37.609375 183.089844 C 36.386719 181.925781 35.191406 180.734375 34.027344 179.515625 C 32.867188 178.300781 31.734375 177.054688 30.636719 175.78125 C 29.539062 174.511719 28.472656 173.214844 27.441406 171.894531 C 26.410156 170.574219 25.414062 169.230469 24.449219 167.863281 C 23.488281 166.492188 22.5625 165.105469 21.671875 163.695312 C 20.78125 162.285156 19.929688 160.851562 19.113281 159.402344 C 18.296875 157.953125 17.519531 156.484375 16.777344 154.996094 C 16.035156 153.511719 15.335938 152.007812 14.671875 150.488281 C 14.011719 148.96875 13.386719 147.433594 12.804688 145.886719 C 12.21875 144.335938 11.675781 142.777344 11.175781 141.203125 C 10.671875 139.628906 10.210938 138.042969 9.789062 136.449219 C 9.367188 134.851562 8.988281 133.25 8.652344 131.636719 C 8.3125 130.023438 8.019531 128.402344 7.761719 126.777344 C 7.507812 125.148438 7.296875 123.515625 7.128906 121.878906 C 6.957031 120.242188 6.832031 118.605469 6.746094 116.960938 C 6.660156 115.320312 6.617188 113.675781 6.617188 112.03125 C 6.617188 110.386719 6.660156 108.742188 6.746094 107.097656 C 6.832031 105.457031 6.957031 103.816406 7.128906 102.179688 C 7.296875 100.542969 7.507812 98.910156 7.761719 97.285156 C 8.019531 95.65625 8.3125 94.039062 8.652344 92.425781 C 8.988281 90.8125 9.367188 89.207031 9.789062 87.613281 C 10.210938 86.015625 10.671875 84.433594 11.175781 82.859375 C 11.675781 81.285156 12.21875 79.722656 12.804688 78.175781 C 13.386719 76.625 14.011719 75.09375 14.671875 73.574219 C 15.335938 72.054688 16.035156 70.550781 16.777344 69.0625 C 17.519531 67.578125 18.296875 66.109375 19.113281 64.660156 C 19.929688 63.207031 20.78125 61.777344 21.671875 60.367188 C 22.5625 58.957031 23.488281 57.566406 24.449219 56.199219 C 25.414062 54.832031 26.410156 53.488281 27.441406 52.167969 C 28.472656 50.847656 29.539062 49.550781 30.636719 48.277344 C 31.734375 47.007812 32.867188 45.761719 34.027344 44.542969 C 35.191406 43.324219 36.386719 42.132812 37.609375 40.972656 C 38.835938 39.808594 40.089844 38.675781 41.371094 37.570312 C 42.65625 36.464844 43.964844 35.390625 45.304688 34.347656 C 46.644531 33.304688 48.007812 32.292969 49.398438 31.3125 C 50.789062 30.332031 52.203125 29.386719 53.644531 28.472656 C 55.085938 27.558594 56.546875 26.679688 58.03125 25.835938 C 59.519531 24.988281 61.023438 24.179688 62.550781 23.402344 C 64.078125 22.628906 65.625 21.890625 67.191406 21.1875 C 68.753906 20.484375 70.339844 19.816406 71.9375 19.1875 C 73.539062 18.558594 75.152344 17.964844 76.785156 17.410156 C 78.414062 16.859375 80.058594 16.34375 81.714844 15.863281 C 83.371094 15.386719 85.039062 14.949219 86.71875 14.550781 C 88.398438 14.148438 90.089844 13.789062 91.789062 13.46875 C 93.484375 13.148438 95.191406 12.867188 96.90625 12.625 C 98.617188 12.382812 100.335938 12.183594 102.058594 12.019531 C 103.78125 11.859375 105.507812 11.738281 107.238281 11.660156 C 108.96875 11.578125 110.699219 11.539062 112.429688 11.539062 C 114.164062 11.539062 115.894531 11.578125 117.621094 11.660156 C 119.351562 11.738281 121.078125 11.859375 122.800781 12.019531 C 124.527344 12.183594 126.242188 12.382812 127.957031 12.625 C 129.667969 12.867188 131.375 13.148438 133.074219 13.46875 C 134.773438 13.789062 136.460938 14.148438 138.140625 14.550781 C 139.820312 14.949219 141.488281 15.386719 143.148438 15.863281 C 144.804688 16.34375 146.449219 16.859375 148.078125 17.410156 C 149.707031 17.964844 151.324219 18.558594 152.921875 19.1875 C 154.523438 19.816406 156.105469 20.484375 157.671875 21.1875 C 159.238281 21.890625 160.78125 22.628906 162.308594 23.402344 C 163.835938 24.179688 165.34375 24.988281 166.828125 25.835938 C 168.316406 26.679688 169.777344 27.558594 171.21875 28.472656 C 172.65625 29.386719 174.070312 30.332031 175.464844 31.3125 C 176.855469 32.292969 178.21875 33.304688 179.558594 34.347656 C 180.894531 35.390625 182.207031 36.464844 183.488281 37.570312 C 184.773438 38.675781 186.027344 39.808594 187.25 40.972656 C 188.476562 42.132812 189.667969 43.324219 190.832031 44.542969 C 191.996094 45.761719 193.125 47.007812 194.226562 48.277344 C 195.324219 49.550781 196.386719 50.847656 197.421875 52.167969 C 198.453125 53.488281 199.449219 54.832031 200.410156 56.199219 C 201.371094 57.566406 202.300781 58.957031 203.1875 60.367188 C 204.078125 61.777344 204.933594 63.207031 205.75 64.660156 C 206.566406 66.109375 207.34375 67.578125 208.085938 69.0625 C 208.824219 70.550781 209.527344 72.054688 210.1875 73.574219 C 210.851562 75.09375 211.472656 76.625 212.058594 78.175781 C 212.640625 79.722656 213.183594 81.285156 213.6875 82.859375 C 214.191406 84.433594 214.652344 86.015625 215.070312 87.613281 C 215.492188 89.207031 215.871094 90.8125 216.210938 92.425781 C 216.546875 94.039062 216.84375 95.65625 217.097656 97.285156 C 217.351562 98.910156 217.5625 100.542969 217.734375 102.179688 C 217.902344 103.816406 218.03125 105.457031 218.117188 107.097656 C 218.199219 108.742188 218.242188 110.386719 218.242188 112.03125 Z M 218.242188 112.03125 " fill-opacity="1" fill-rule="nonzero"/></g><path fill="#753268" d="M 210.859375 111.035156 C 210.859375 112.558594 210.820312 114.078125 210.742188 115.59375 C 210.660156 117.113281 210.542969 118.628906 210.382812 120.144531 C 210.226562 121.65625 210.027344 123.167969 209.789062 124.671875 C 209.550781 126.175781 209.273438 127.671875 208.960938 129.164062 C 208.644531 130.65625 208.289062 132.140625 207.894531 133.613281 C 207.503906 135.089844 207.070312 136.554688 206.601562 138.011719 C 206.128906 139.464844 205.621094 140.910156 205.078125 142.339844 C 204.53125 143.773438 203.949219 145.191406 203.328125 146.59375 C 202.710938 148 202.054688 149.390625 201.359375 150.765625 C 200.667969 152.140625 199.941406 153.496094 199.175781 154.839844 C 198.414062 156.179688 197.617188 157.503906 196.785156 158.808594 C 195.953125 160.113281 195.085938 161.394531 194.183594 162.660156 C 193.285156 163.925781 192.355469 165.167969 191.390625 166.390625 C 190.425781 167.609375 189.429688 168.808594 188.402344 169.984375 C 187.375 171.160156 186.316406 172.3125 185.230469 173.4375 C 184.140625 174.566406 183.027344 175.667969 181.878906 176.742188 C 180.734375 177.816406 179.5625 178.863281 178.363281 179.886719 C 177.164062 180.90625 175.9375 181.902344 174.6875 182.867188 C 173.433594 183.832031 172.15625 184.765625 170.855469 185.671875 C 169.558594 186.578125 168.234375 187.453125 166.886719 188.296875 C 165.539062 189.140625 164.171875 189.957031 162.785156 190.738281 C 161.394531 191.519531 159.984375 192.269531 158.558594 192.984375 C 157.128906 193.703125 155.683594 194.386719 154.21875 195.035156 C 152.757812 195.6875 151.277344 196.300781 149.78125 196.882812 C 148.285156 197.464844 146.773438 198.011719 145.25 198.527344 C 143.726562 199.039062 142.1875 199.515625 140.636719 199.957031 C 139.089844 200.398438 137.527344 200.804688 135.957031 201.171875 C 134.386719 201.542969 132.808594 201.875 131.21875 202.171875 C 129.632812 202.46875 128.035156 202.730469 126.433594 202.953125 C 124.832031 203.175781 123.226562 203.359375 121.613281 203.511719 C 120.003906 203.660156 118.386719 203.769531 116.769531 203.84375 C 115.152344 203.921875 113.535156 203.957031 111.917969 203.957031 C 110.296875 203.957031 108.679688 203.921875 107.0625 203.84375 C 105.445312 203.769531 103.828125 203.660156 102.21875 203.511719 C 100.605469 203.359375 99 203.175781 97.398438 202.953125 C 95.796875 202.730469 94.199219 202.46875 92.613281 202.171875 C 91.023438 201.875 89.445312 201.542969 87.875 201.171875 C 86.304688 200.804688 84.742188 200.398438 83.195312 199.957031 C 81.644531 199.515625 80.105469 199.039062 78.582031 198.527344 C 77.058594 198.011719 75.546875 197.464844 74.050781 196.882812 C 72.554688 196.300781 71.074219 195.6875 69.613281 195.035156 C 68.148438 194.386719 66.703125 193.703125 65.273438 192.984375 C 63.847656 192.269531 62.4375 191.519531 61.046875 190.738281 C 59.660156 189.957031 58.292969 189.140625 56.945312 188.296875 C 55.597656 187.453125 54.277344 186.578125 52.976562 185.671875 C 51.675781 184.765625 50.398438 183.832031 49.144531 182.867188 C 47.894531 181.902344 46.667969 180.90625 45.46875 179.886719 C 44.269531 178.863281 43.097656 177.816406 41.953125 176.742188 C 40.808594 175.667969 39.691406 174.566406 38.601562 173.4375 C 37.515625 172.3125 36.457031 171.160156 35.429688 169.984375 C 34.402344 168.808594 33.40625 167.609375 32.441406 166.390625 C 31.476562 165.167969 30.546875 163.925781 29.648438 162.660156 C 28.746094 161.394531 27.882812 160.113281 27.046875 158.808594 C 26.214844 157.503906 25.417969 156.179688 24.65625 154.839844 C 23.890625 153.496094 23.164062 152.140625 22.472656 150.765625 C 21.777344 149.390625 21.121094 148 20.503906 146.59375 C 19.882812 145.191406 19.300781 143.773438 18.753906 142.339844 C 18.210938 140.910156 17.703125 139.464844 17.230469 138.011719 C 16.761719 136.554688 16.332031 135.089844 15.9375 133.613281 C 15.542969 132.140625 15.1875 130.65625 14.871094 129.164062 C 14.558594 127.671875 14.28125 126.175781 14.042969 124.671875 C 13.804688 123.167969 13.605469 121.65625 13.449219 120.144531 C 13.289062 118.628906 13.171875 117.113281 13.089844 115.59375 C 13.011719 114.078125 12.972656 112.558594 12.972656 111.035156 C 12.972656 109.515625 13.011719 107.996094 13.089844 106.476562 C 13.171875 104.957031 13.289062 103.441406 13.449219 101.929688 C 13.605469 100.414062 13.804688 98.90625 14.042969 97.402344 C 14.28125 95.898438 14.558594 94.398438 14.871094 92.90625 C 15.1875 91.417969 15.542969 89.933594 15.9375 88.457031 C 16.332031 86.984375 16.761719 85.519531 17.230469 84.0625 C 17.703125 82.605469 18.210938 81.164062 18.753906 79.730469 C 19.300781 78.300781 19.882812 76.882812 20.503906 75.476562 C 21.121094 74.070312 21.777344 72.683594 22.472656 71.308594 C 23.164062 69.933594 23.890625 68.574219 24.65625 67.234375 C 25.417969 65.890625 26.214844 64.570312 27.046875 63.265625 C 27.882812 61.960938 28.746094 60.675781 29.648438 59.410156 C 30.546875 58.148438 31.476562 56.90625 32.441406 55.683594 C 33.40625 54.460938 34.402344 53.261719 35.429688 52.085938 C 36.457031 50.910156 37.515625 49.761719 38.601562 48.632812 C 39.691406 47.507812 40.808594 46.40625 41.953125 45.332031 C 43.097656 44.253906 44.269531 43.207031 45.46875 42.1875 C 46.667969 41.164062 47.894531 40.171875 49.144531 39.207031 C 50.398438 38.242188 51.675781 37.308594 52.976562 36.402344 C 54.277344 35.496094 55.597656 34.621094 56.945312 33.773438 C 58.292969 32.929688 59.660156 32.117188 61.046875 31.335938 C 62.4375 30.554688 63.847656 29.804688 65.273438 29.085938 C 66.703125 28.371094 68.148438 27.6875 69.613281 27.035156 C 71.074219 26.386719 72.554688 25.769531 74.050781 25.1875 C 75.546875 24.605469 77.058594 24.058594 78.582031 23.546875 C 80.105469 23.035156 81.644531 22.558594 83.195312 22.117188 C 84.742188 21.675781 86.304688 21.269531 87.875 20.898438 C 89.445312 20.53125 91.023438 20.195312 92.613281 19.898438 C 94.199219 19.605469 95.796875 19.34375 97.398438 19.121094 C 99 18.898438 100.605469 18.710938 102.21875 18.5625 C 103.828125 18.414062 105.445312 18.300781 107.0625 18.226562 C 108.679688 18.152344 110.296875 18.113281 111.917969 18.113281 C 113.535156 18.113281 115.152344 18.152344 116.769531 18.226562 C 118.386719 18.300781 120.003906 18.414062 121.613281 18.5625 C 123.226562 18.710938 124.832031 18.898438 126.433594 19.121094 C 128.035156 19.34375 129.632812 19.605469 131.21875 19.898438 C 132.808594 20.195312 134.386719 20.53125 135.957031 20.898438 C 137.527344 21.269531 139.089844 21.675781 140.636719 22.117188 C 142.1875 22.558594 143.726562 23.035156 145.25 23.546875 C 146.773438 24.058594 148.285156 24.605469 149.78125 25.1875 C 151.277344 25.769531 152.757812 26.386719 154.21875 27.035156 C 155.683594 27.6875 157.128906 28.371094 158.558594 29.085938 C 159.984375 29.804688 161.394531 30.554688 162.785156 31.335938 C 164.171875 32.117188 165.539062 32.929688 166.886719 33.773438 C 168.234375 34.621094 169.558594 35.496094 170.855469 36.402344 C 172.15625 37.308594 173.433594 38.242188 174.6875 39.207031 C 175.9375 40.171875 177.164062 41.164062 178.363281 42.1875 C 179.5625 43.207031 180.734375 44.253906 181.878906 45.332031 C 183.027344 46.40625 184.140625 47.507812 185.230469 48.632812 C 186.316406 49.761719 187.375 50.910156 188.402344 52.085938 C 189.429688 53.261719 190.425781 54.460938 191.390625 55.683594 C 192.355469 56.90625 193.285156 58.148438 194.183594 59.410156 C 195.085938 60.675781 195.953125 61.960938 196.785156 63.265625 C 197.617188 64.570312 198.414062 65.890625 199.175781 67.234375 C 199.941406 68.574219 200.667969 69.933594 201.359375 71.308594 C 202.054688 72.683594 202.710938 74.070312 203.328125 75.476562 C 203.949219 76.882812 204.53125 78.300781 205.078125 79.730469 C 205.621094 81.164062 206.128906 82.605469 206.601562 84.0625 C 207.070312 85.519531 207.503906 86.984375 207.894531 88.457031 C 208.289062 89.933594 208.644531 91.417969 208.960938 92.90625 C 209.273438 94.398438 209.550781 95.898438 209.789062 97.402344 C 210.027344 98.90625 210.226562 100.414062 210.382812 101.929688 C 210.542969 103.441406 210.660156 104.957031 210.742188 106.476562 C 210.820312 107.996094 210.859375 109.515625 210.859375 111.035156 Z M 210.859375 111.035156 " fill-opacity="1" fill-rule="nonzero"/><path fill="#ffffff" d="M 34.347656 93.902344 L 188.292969 93.902344 L 188.292969 127.609375 L 34.347656 127.609375 Z M 34.347656 93.902344 " fill-opacity="1" fill-rule="evenodd"/></svg>