<svg xmlns="http://www.w3.org/2000/svg" xmlns:xlink="http://www.w3.org/1999/xlink" width="1920" zoomAndPan="magnify" viewBox="0 0 1440 809.999993" height="1080" preserveAspectRatio="xMidYMid meet" version="1.0"><defs><clipPath id="3646c8ea88"><path d="M 408.109375 93.109375 L 1031.890625 93.109375 L 1031.890625 185.074219 L 408.109375 185.074219 Z M 408.109375 93.109375 " clip-rule="nonzero"/></clipPath><clipPath id="80a5c7758d"><path d="M 0.109375 0.109375 L 623.890625 0.109375 L 623.890625 92.074219 L 0.109375 92.074219 Z M 0.109375 0.109375 " clip-rule="nonzero"/></clipPath><clipPath id="8df8b47f0c"><rect x="0" width="624" y="0" height="93"/></clipPath><clipPath id="9d40a5efe5"><path d="M 674.019531 93.105469 L 765.984375 93.105469 L 765.984375 716.886719 L 674.019531 716.886719 Z M 674.019531 93.105469 " clip-rule="nonzero"/></clipPath><clipPath id="167cecb709"><path d="M 0.0195312 0.105469 L 91.984375 0.105469 L 91.984375 623.886719 L 0.0195312 623.886719 Z M 0.0195312 0.105469 " clip-rule="nonzero"/></clipPath><clipPath id="2241921681"><rect x="0" width="92" y="0" height="624"/></clipPath><clipPath id="6d4426fafd"><path d="M 597.582031 685.144531 L 842.417969 685.144531 L 842.417969 729 L 597.582031 729 Z M 597.582031 685.144531 " clip-rule="nonzero"/></clipPath><clipPath id="6869487614"><path d="M 0.582031 0.144531 L 245.417969 0.144531 L 245.417969 44 L 0.582031 44 Z M 0.582031 0.144531 " clip-rule="nonzero"/></clipPath><clipPath id="8c536fdc2d"><rect x="0" width="246" y="0" height="44"/></clipPath></defs><g clip-path="url(#3646c8ea88)"><g transform="matrix(1, 0, 0, 1, 408, 93)"><g clip-path="url(#8df8b47f0c)"><g clip-path="url(#80a5c7758d)"><path fill="#ffffff" d="M 0.109375 0.109375 L 623.746094 0.109375 L 623.746094 92.074219 L 0.109375 92.074219 Z M 0.109375 0.109375 " fill-opacity="1" fill-rule="nonzero"/></g></g></g></g><g clip-path="url(#9d40a5efe5)"><g transform="matrix(1, 0, 0, 1, 674, 93)"><g clip-path="url(#2241921681)"><g clip-path="url(#167cecb709)"><path fill="#ffffff" d="M 0.0195312 623.886719 L 0.0195312 0.25 L 91.984375 0.25 L 91.984375 623.886719 Z M 0.0195312 623.886719 " fill-opacity="1" fill-rule="nonzero"/></g></g></g></g><g clip-path="url(#6d4426fafd)"><g transform="matrix(1, 0, 0, 1, 597, 685)"><g clip-path="url(#8c536fdc2d)"><g clip-path="url(#6869487614)"><path fill="#ffffff" d="M 0.582031 0.144531 L 245.382812 0.144531 L 245.382812 44 L 0.582031 44 Z M 0.582031 0.144531 " fill-opacity="1" fill-rule="nonzero"/></g></g></g></g></svg>